<svg width="14" height="12" viewBox="0 0 14 12" fill="none" xmlns="http://www.w3.org/2000/svg">
<path d="M13.2525 9.76138C12.9935 9.50638 9.85495 8.29238 9.28545 8.06338C8.71895 7.83838 8.49295 7.21488 8.49295 7.21488C8.49295 7.21488 8.23795 7.35588 8.23795 6.95988C8.23795 6.56338 8.49295 7.21488 8.74795 5.68588C8.74795 5.68588 9.45545 5.48738 9.31495 3.84588H9.14495C9.14495 3.84588 9.56995 2.09088 9.14495 1.49688C8.71845 0.902876 8.55145 0.506876 7.61495 0.222876C6.67995 -0.0606243 7.01995 -0.0041243 6.34095 0.0248757C5.66095 0.0533757 5.09495 0.421376 5.09495 0.618876C5.09495 0.618876 4.66995 0.647376 4.50095 0.817376C4.33095 0.987376 4.04795 1.77938 4.04795 1.97738C4.04795 2.17538 4.18945 3.50738 4.33095 3.78938L4.16245 3.84438C4.02095 5.48638 4.72845 5.68538 4.72845 5.68538C4.98345 7.21438 5.23845 6.56288 5.23845 6.95938C5.23845 7.35538 4.98345 7.21438 4.98345 7.21438C4.98345 7.21438 4.75695 7.83738 4.19095 8.06288C3.62495 8.28938 0.482951 9.50638 0.227451 9.76088C-0.0275487 10.0209 0.000951226 11.2089 0.000951226 11.2089H13.478C13.478 11.2089 13.5095 10.0199 13.2515 9.76038L13.2525 9.76138ZM10.085 10.8864H7.80395V10.2614H10.085V10.8864Z" fill="#5D5D5D"/>
</svg>
