<svg width="18" height="18" viewBox="0 0 18 18" fill="none" xmlns="http://www.w3.org/2000/svg">
<path d="M9 7.98998C10.3144 7.98998 11.38 6.93785 11.38 5.63998C11.38 4.34211 10.3144 3.28998 9 3.28998C7.68556 3.28998 6.62 4.34211 6.62 5.63998C6.62 6.93785 7.68556 7.98998 9 7.98998Z" fill="#5D5D5D"/>
<path d="M5.39001 5.87498H5.63001V5.65998C5.63147 5.03478 5.80785 4.42246 6.13921 3.89229C6.47056 3.36212 6.94367 2.93525 7.50501 2.65998C7.33883 2.27726 7.07209 1.9467 6.73313 1.7034C6.39416 1.4601 5.99563 1.31315 5.57986 1.27816C5.16409 1.24317 4.7466 1.32144 4.37174 1.50466C3.99688 1.68789 3.67865 1.96922 3.45084 2.31878C3.22303 2.66834 3.09415 3.07308 3.07789 3.49C3.06163 3.90693 3.1586 4.32047 3.35849 4.68671C3.55839 5.05295 3.85375 5.35822 4.2132 5.57008C4.57265 5.78194 4.98278 5.89248 5.40001 5.88998L5.39001 5.87498ZM12.38 5.63998V5.85498H12.62C13.0317 5.85085 13.4346 5.73581 13.7864 5.52197C14.1383 5.30814 14.4259 5.00342 14.6191 4.63988C14.8124 4.27634 14.904 3.86744 14.8844 3.45621C14.8649 3.04497 14.7348 2.64662 14.5079 2.30309C14.281 1.95955 13.9657 1.68353 13.5952 1.50408C13.2247 1.32463 12.8126 1.24839 12.4024 1.28338C11.9922 1.31837 11.599 1.46331 11.2642 1.70292C10.9294 1.94254 10.6654 2.26797 10.5 2.64498C11.0615 2.91918 11.5352 3.34496 11.8674 3.87422C12.1996 4.40347 12.3772 5.0151 12.38 5.63998ZM11.145 8.22498C12.1391 8.42208 13.1002 8.75874 14 9.22498C14.1268 9.29453 14.2416 9.384 14.34 9.48998H17V7.77998C17.0005 7.71439 16.9831 7.64992 16.9496 7.59352C16.9161 7.53713 16.8678 7.49095 16.81 7.45998C15.5141 6.78214 14.0725 6.43032 12.61 6.43498H12.28C12.1067 7.13934 11.7082 7.76785 11.145 8.22498ZM3.26501 10.46C3.2641 10.2082 3.3321 9.9609 3.46166 9.74497C3.59122 9.52904 3.77739 9.35267 4.00001 9.23498C4.89978 8.76874 5.86097 8.43208 6.85501 8.23498C6.29454 7.78174 5.89627 7.15889 5.72001 6.45998H5.39001C3.92752 6.45532 2.48593 6.80714 1.19001 7.48498C1.13219 7.51595 1.08394 7.56213 1.05045 7.61852C1.01697 7.67492 0.999525 7.73939 1.00001 7.80498V11H3.26501V10.46ZM10.73 13.345H13.71V14.045H10.73V13.345Z" fill="#5D5D5D"/>
<path d="M16.405 10.63H12.97V10.13C12.97 9.9974 12.9173 9.87022 12.8236 9.77645C12.7298 9.68269 12.6026 9.63001 12.47 9.63001C12.3374 9.63001 12.2102 9.68269 12.1165 9.77645C12.0227 9.87022 11.97 9.9974 11.97 10.13V10.63H11V9.21501C10.3423 9.0763 9.67222 9.00427 9.00002 9.00001C7.42198 8.99405 5.86655 9.37518 4.47002 10.11C4.40783 10.1423 4.35577 10.1911 4.31959 10.2511C4.28341 10.3111 4.26453 10.3799 4.26502 10.45V13.255H7.82002V16.3C7.82002 16.4326 7.8727 16.5598 7.96647 16.6536C8.06024 16.7473 8.18742 16.8 8.32002 16.8H16.405C16.5376 16.8 16.6648 16.7473 16.7586 16.6536C16.8523 16.5598 16.905 16.4326 16.905 16.3V11.13C16.905 10.9974 16.8523 10.8702 16.7586 10.7765C16.6648 10.6827 16.5376 10.63 16.405 10.63ZM15.905 15.81H8.82002V11.63H11.97V12.085C11.97 12.2176 12.0227 12.3448 12.1165 12.4386C12.2102 12.5323 12.3374 12.585 12.47 12.585C12.6026 12.585 12.7298 12.5323 12.8236 12.4386C12.9173 12.3448 12.97 12.2176 12.97 12.085V11.63H15.905V15.81Z" fill="#5D5D5D"/>
</svg>
