<svg width="18" height="18" viewBox="0 0 18 18" fill="none" xmlns="http://www.w3.org/2000/svg">
<path d="M9 7.99001C10.3144 7.99001 11.38 6.93788 11.38 5.64001C11.38 4.34214 10.3144 3.29001 9 3.29001C7.68556 3.29001 6.62 4.34214 6.62 5.64001C6.62 6.93788 7.68556 7.99001 9 7.99001Z" fill="url(#paint0_linear_2_643)"/>
<path d="M5.39001 5.87501H5.63001V5.66001C5.63147 5.03481 5.80785 4.42249 6.13921 3.89232C6.47056 3.36215 6.94367 2.93528 7.50501 2.66001C7.33883 2.27729 7.07209 1.94673 6.73313 1.70343C6.39416 1.46013 5.99563 1.31318 5.57986 1.27819C5.16409 1.2432 4.7466 1.32147 4.37174 1.50469C3.99688 1.68792 3.67865 1.96925 3.45084 2.31881C3.22303 2.66837 3.09415 3.07311 3.07789 3.49003C3.06163 3.90696 3.1586 4.3205 3.35849 4.68674C3.55839 5.05298 3.85375 5.35825 4.2132 5.57011C4.57265 5.78197 4.98278 5.89251 5.40001 5.89001L5.39001 5.87501ZM12.38 5.64001V5.85501H12.62C13.0317 5.85088 13.4346 5.73584 13.7864 5.52201C14.1383 5.30817 14.4259 5.00345 14.6191 4.63991C14.8124 4.27637 14.904 3.86747 14.8844 3.45624C14.8649 3.045 14.7348 2.64665 14.5079 2.30312C14.281 1.95958 13.9657 1.68356 13.5952 1.50411C13.2247 1.32466 12.8126 1.24842 12.4024 1.28341C11.9922 1.3184 11.599 1.46334 11.2642 1.70295C10.9294 1.94257 10.6654 2.26801 10.5 2.64501C11.0615 2.91921 11.5352 3.34499 11.8674 3.87425C12.1996 4.4035 12.3772 5.01513 12.38 5.64001ZM11.145 8.22501C12.1391 8.42211 13.1002 8.75877 14 9.22501C14.1268 9.29456 14.2416 9.38403 14.34 9.49001H17V7.78001C17.0005 7.71442 16.9831 7.64995 16.9496 7.59355C16.9161 7.53716 16.8678 7.49098 16.81 7.46001C15.5141 6.78217 14.0725 6.43035 12.61 6.43501H12.28C12.1067 7.13937 11.7082 7.76788 11.145 8.22501ZM3.26501 10.46C3.2641 10.2082 3.3321 9.96093 3.46166 9.745C3.59122 9.52907 3.77739 9.3527 4.00001 9.23501C4.89978 8.76877 5.86097 8.43211 6.85501 8.23501C6.29454 7.78177 5.89627 7.15892 5.72001 6.46001H5.39001C3.92752 6.45535 2.48593 6.80717 1.19001 7.48501C1.13219 7.51598 1.08394 7.56216 1.05045 7.61855C1.01697 7.67495 0.999525 7.73942 1.00001 7.80501V11H3.26501V10.46ZM10.73 13.345H13.71V14.045H10.73V13.345Z" fill="url(#paint1_linear_2_643)"/>
<path d="M16.405 10.63H12.97V10.13C12.97 9.9974 12.9173 9.87022 12.8236 9.77645C12.7298 9.68269 12.6026 9.63001 12.47 9.63001C12.3374 9.63001 12.2102 9.68269 12.1165 9.77645C12.0227 9.87022 11.97 9.9974 11.97 10.13V10.63H11V9.21501C10.3423 9.0763 9.67222 9.00427 9.00002 9.00001C7.42198 8.99405 5.86655 9.37518 4.47002 10.11C4.40783 10.1423 4.35577 10.1911 4.31959 10.2511C4.28341 10.3111 4.26453 10.3799 4.26502 10.45V13.255H7.82002V16.3C7.82002 16.4326 7.8727 16.5598 7.96647 16.6536C8.06024 16.7473 8.18742 16.8 8.32002 16.8H16.405C16.5376 16.8 16.6648 16.7473 16.7586 16.6536C16.8523 16.5598 16.905 16.4326 16.905 16.3V11.13C16.905 10.9974 16.8523 10.8702 16.7586 10.7765C16.6648 10.6827 16.5376 10.63 16.405 10.63ZM15.905 15.81H8.82002V11.63H11.97V12.085C11.97 12.2176 12.0227 12.3448 12.1165 12.4386C12.2102 12.5323 12.3374 12.585 12.47 12.585C12.6026 12.585 12.7298 12.5323 12.8236 12.4386C12.9173 12.3448 12.97 12.2176 12.97 12.085V11.63H15.905V15.81Z" fill="url(#paint2_linear_2_643)"/>
<defs>
<linearGradient id="paint0_linear_2_643" x1="9" y1="3.29001" x2="9" y2="7.99001" gradientUnits="userSpaceOnUse">
<stop stop-color="#9962B9"/>
<stop offset="0.793269" stop-color="#4A12DE"/>
</linearGradient>
<linearGradient id="paint1_linear_2_643" x1="9.00001" y1="1.27005" x2="9.00001" y2="14.045" gradientUnits="userSpaceOnUse">
<stop stop-color="#9962B9"/>
<stop offset="0.793269" stop-color="#4A12DE"/>
</linearGradient>
<linearGradient id="paint2_linear_2_643" x1="10.585" y1="8.99994" x2="10.585" y2="16.8" gradientUnits="userSpaceOnUse">
<stop stop-color="#9962B9"/>
<stop offset="0.793269" stop-color="#4A12DE"/>
</linearGradient>
</defs>
</svg>
