<svg width="709" height="516" viewBox="0 0 709 516" fill="none" xmlns="http://www.w3.org/2000/svg">
<g clip-path="url(#clip0_1_5)">
<mask id="mask0_1_5" style="mask-type:luminance" maskUnits="userSpaceOnUse" x="0" y="0" width="709" height="516">
<path d="M709 0H0V516H709V0Z" fill="white"/>
</mask>
<g mask="url(#mask0_1_5)">
<path d="M325.802 235.531C329.872 233.181 336.534 233.181 340.607 235.531L559.306 361.803C563.379 364.155 563.379 368.001 559.306 370.352L414.345 454.046C410.274 456.397 403.611 456.396 399.538 454.047L180.838 327.779C176.766 325.427 176.766 321.579 180.838 319.229L325.802 235.531Z" fill="#E2DEF7"/>
<path d="M562.361 366.078L562.359 374.523C562.406 376.107 561.388 377.7 559.306 378.9L414.345 462.595C410.274 464.947 403.611 464.948 399.539 462.598L180.839 336.326C178.804 335.153 177.787 333.604 177.786 332.057L177.791 323.682C177.789 323.652 177.794 323.622 177.794 323.594C177.831 325.112 178.843 326.625 180.839 327.778L399.539 454.047C403.611 456.395 410.274 456.396 414.345 454.046L559.306 370.352C561.363 369.166 562.382 367.597 562.361 366.031V366.078Z" fill="#C5BCD5"/>
<path d="M332.664 55.096C332.664 50.394 335.994 48.472 340.065 50.822L558.769 177.088C562.842 179.439 566.175 185.208 566.175 189.909L566.172 357.299C566.172 362 562.84 363.924 558.768 361.574L340.063 235.306C335.993 232.955 332.661 227.185 332.661 222.484L332.664 55.096Z" fill="#C5BCD5"/>
<path d="M552.845 346.186C554.474 347.126 555.806 346.358 555.806 344.477L555.807 190.766C555.807 188.884 554.474 186.577 552.845 185.637L345.99 66.21C344.359 65.27 343.028 66.038 343.028 67.919L343.027 221.629C343.027 223.51 344.358 225.818 345.987 226.758L552.845 346.186Z" fill="#F0ECFB"/>
<path d="M253.727 292.895C252.909 293.363 252.905 294.133 253.72 294.602L456.642 411.761C457.456 412.232 458.791 412.235 459.609 411.766L540.64 365.381C541.456 364.914 541.459 364.147 540.645 363.675L337.723 246.514C336.909 246.043 335.574 246.041 334.757 246.51L253.727 292.895Z" fill="#C5BCD5"/>
<path d="M264.118 365.183C263.303 365.653 263.302 366.422 264.118 366.893L331.792 405.967C332.606 406.436 333.939 406.436 334.753 405.967L383.997 377.536C384.809 377.066 384.809 376.296 383.997 375.826L316.32 336.753C315.506 336.282 314.173 336.282 313.359 336.751L264.118 365.183Z" fill="#D5D1EA"/>
<path d="M566.171 357.299L566.174 189.91C566.174 185.21 562.842 179.439 558.77 177.088L340.066 50.823C338.114 49.697 336.338 49.561 335.011 50.234C335.034 50.222 335.052 50.206 335.075 50.195L340.893 46.849C342.223 46.146 344.024 46.278 345.998 47.419L564.704 173.686C568.775 176.036 572.107 181.806 572.107 186.508L572.106 353.898C572.104 356.245 571.272 357.896 569.934 358.669L564.036 362.054C565.355 361.269 566.171 359.624 566.171 357.299Z" fill="#E2DEF7"/>
<path d="M328.045 267.341C327.233 267.81 325.904 267.811 325.091 267.341L316.096 262.148C315.283 261.678 315.283 260.911 316.096 260.442L325.091 255.248C325.904 254.779 327.233 254.779 328.045 255.248L337.039 260.441C337.853 260.911 337.853 261.678 337.039 262.148L328.045 267.341Z" fill="#E2DEF7"/>
<path d="M341.809 275.288C340.997 275.756 339.668 275.756 338.856 275.287L329.86 270.094C329.047 269.624 329.047 268.857 329.86 268.389L338.856 263.195C339.668 262.726 340.997 262.726 341.809 263.195L350.803 268.388C351.617 268.857 351.617 269.624 350.804 270.094L341.809 275.288Z" fill="#E2DEF7"/>
<path d="M355.574 283.233C354.761 283.703 353.431 283.703 352.618 283.233L343.624 278.04C342.813 277.572 342.813 276.805 343.624 276.337L352.62 271.14C353.432 270.672 354.761 270.672 355.574 271.14L364.566 276.336C365.381 276.805 365.382 277.572 364.568 278.04L355.574 283.233Z" fill="#E2DEF7"/>
<path d="M369.338 291.18C368.526 291.649 367.194 291.649 366.382 291.18L357.388 285.987C356.575 285.518 356.575 284.75 357.388 284.282L366.383 279.088C367.194 278.618 368.526 278.618 369.338 279.088L378.332 284.282C379.145 284.75 379.145 285.518 378.332 285.987L369.338 291.18Z" fill="#E2DEF7"/>
<path d="M383.102 299.128C382.289 299.597 380.958 299.597 380.146 299.127L371.15 293.934C370.339 293.466 370.339 292.697 371.15 292.229L380.146 287.035C380.958 286.565 382.289 286.565 383.102 287.035L392.095 292.229C392.908 292.697 392.909 293.465 392.097 293.934L383.102 299.128Z" fill="#E2DEF7"/>
<path d="M396.864 307.074C396.052 307.543 394.722 307.543 393.91 307.074L384.916 301.882C384.104 301.413 384.104 300.645 384.916 300.176L393.912 294.982C394.722 294.512 396.052 294.512 396.864 294.982L405.859 300.175C406.673 300.644 406.673 301.413 405.859 301.882L396.864 307.074Z" fill="#E2DEF7"/>
<path d="M410.629 315.022C409.816 315.491 408.486 315.491 407.674 315.022L398.681 309.828C397.867 309.359 397.867 308.591 398.68 308.123L407.675 302.928C408.486 302.459 409.816 302.459 410.629 302.928L419.623 308.123C420.437 308.591 420.437 309.359 419.624 309.828L410.629 315.022Z" fill="#E2DEF7"/>
<path d="M424.392 322.969C423.58 323.438 422.25 323.438 421.438 322.969L412.445 317.776C411.632 317.307 411.631 316.538 412.443 316.07L421.439 310.876C422.249 310.407 423.58 310.407 424.392 310.877L433.386 316.07C434.201 316.539 434.201 317.307 433.387 317.776L424.392 322.969Z" fill="#E2DEF7"/>
<path d="M438.157 330.914C437.344 331.383 436.015 331.383 435.203 330.914L426.209 325.722C425.395 325.252 425.395 324.484 426.208 324.016L435.204 318.822C436.015 318.353 437.344 318.353 438.157 318.823L447.151 324.016C447.964 324.484 447.964 325.252 447.151 325.722L438.157 330.914Z" fill="#E2DEF7"/>
<path d="M451.92 338.862C451.108 339.331 449.778 339.331 448.965 338.861L439.971 333.669C439.159 333.2 439.159 332.432 439.971 331.963L448.965 326.77C449.778 326.301 451.108 326.301 451.92 326.77L460.914 331.963C461.727 332.432 461.727 333.2 460.914 333.669L451.92 338.862Z" fill="#E2DEF7"/>
<path d="M465.684 346.808C464.872 347.278 463.542 347.278 462.729 346.808L453.735 341.616C452.922 341.146 452.922 340.378 453.735 339.91L462.729 334.716C463.542 334.246 464.872 334.246 465.684 334.716L474.679 339.91C475.492 340.378 475.492 341.146 474.679 341.615L465.684 346.808Z" fill="#E2DEF7"/>
<path d="M479.449 354.756C478.636 355.225 477.306 355.225 476.493 354.755L467.498 349.563C466.685 349.094 466.685 348.324 467.497 347.857L476.493 342.663C477.306 342.193 478.636 342.193 479.449 342.663L488.442 347.857C489.255 348.325 489.255 349.094 488.442 349.563L479.449 354.756Z" fill="#E2DEF7"/>
<path d="M493.212 362.701C492.4 363.171 491.07 363.171 490.257 362.701L481.263 357.508C480.451 357.039 480.451 356.271 481.263 355.803L490.257 350.609C491.069 350.139 492.4 350.139 493.213 350.609L502.206 355.803C503.019 356.271 503.019 357.039 502.207 357.509L493.212 362.701Z" fill="#E2DEF7"/>
<path d="M342.082 259.734C341.269 260.204 339.941 260.204 339.128 259.734L329.703 254.292C328.89 253.823 328.89 253.055 329.704 252.586L333.702 250.277C334.514 249.808 335.844 249.808 336.655 250.277L346.081 255.719C346.894 256.188 346.894 256.956 346.081 257.425L342.082 259.734Z" fill="#E2DEF7"/>
<path d="M356.342 267.966C355.53 268.436 354.2 268.436 353.388 267.966L343.962 262.526C343.151 262.057 343.15 261.289 343.962 260.82L347.962 258.51C348.774 258.041 350.102 258.041 350.915 258.51L360.342 263.953C361.154 264.422 361.154 265.19 360.342 265.658L356.342 267.966Z" fill="#E2DEF7"/>
<path d="M370.603 276.199C369.789 276.67 368.46 276.67 367.647 276.199L358.222 270.758C357.41 270.289 357.41 269.521 358.222 269.052L362.221 266.743C363.033 266.274 364.362 266.274 365.175 266.743L374.6 272.185C375.413 272.654 375.413 273.421 374.601 273.89L370.603 276.199Z" fill="#E2DEF7"/>
<path d="M384.864 284.433C384.051 284.903 382.72 284.903 381.907 284.433L372.483 278.992C371.672 278.523 371.672 277.753 372.483 277.286L376.482 274.977C377.295 274.507 378.624 274.507 379.437 274.978L388.861 280.419C389.675 280.888 389.675 281.656 388.861 282.124L384.864 284.433Z" fill="#E2DEF7"/>
<path d="M399.121 292.666C398.309 293.135 396.979 293.135 396.168 292.666L386.742 287.225C385.931 286.755 385.929 285.988 386.742 285.519L390.741 283.21C391.555 282.741 392.884 282.741 393.695 283.21L403.121 288.652C403.933 289.12 403.933 289.889 403.121 290.356L399.121 292.666Z" fill="#E2DEF7"/>
<path d="M413.383 300.899C412.57 301.368 411.24 301.368 410.428 300.899L401.003 295.457C400.19 294.988 400.19 294.222 401.003 293.753L405.002 291.443C405.813 290.973 407.143 290.973 407.956 291.443L417.382 296.885C418.194 297.354 418.194 298.121 417.382 298.59L413.383 300.899Z" fill="#E2DEF7"/>
<path d="M427.642 309.133C426.83 309.602 425.5 309.602 424.689 309.133L415.263 303.691C414.45 303.222 414.45 302.454 415.263 301.985L419.261 299.677C420.075 299.207 421.404 299.207 422.217 299.677L431.64 305.118C432.454 305.587 432.454 306.355 431.641 306.823L427.642 309.133Z" fill="#E2DEF7"/>
<path d="M441.903 317.366C441.091 317.835 439.76 317.835 438.946 317.366L429.524 311.924C428.71 311.455 428.71 310.687 429.524 310.218L433.523 307.91C434.335 307.44 435.663 307.44 436.476 307.91L445.901 313.35C446.714 313.82 446.714 314.587 445.902 315.056L441.903 317.366Z" fill="#E2DEF7"/>
<path d="M456.163 325.599C455.351 326.068 454.021 326.068 453.21 325.599L443.783 320.158C442.972 319.689 442.972 318.92 443.783 318.453L447.782 316.143C448.596 315.674 449.924 315.674 450.736 316.143L460.161 321.585C460.975 322.054 460.975 322.821 460.162 323.291L456.163 325.599Z" fill="#E2DEF7"/>
<path d="M470.422 333.832C469.61 334.302 468.278 334.302 467.467 333.832L458.042 328.391C457.231 327.921 457.231 327.154 458.042 326.686L462.042 324.376C462.853 323.908 464.182 323.907 464.995 324.376L474.42 329.819C475.233 330.288 475.233 331.055 474.42 331.523L470.422 333.832Z" fill="#E2DEF7"/>
<path d="M484.683 342.066C483.87 342.536 482.54 342.536 481.728 342.066L472.303 336.624C471.49 336.155 471.49 335.387 472.303 334.919L476.301 332.61C477.113 332.14 478.444 332.14 479.256 332.61L488.681 338.051C489.493 338.52 489.492 339.288 488.681 339.757L484.683 342.066Z" fill="#E2DEF7"/>
<path d="M498.944 350.298C498.131 350.768 496.801 350.768 495.989 350.298L486.563 344.859C485.751 344.388 485.751 343.621 486.563 343.152L490.56 340.842C491.374 340.373 492.703 340.373 493.517 340.842L502.941 346.285C503.756 346.754 503.756 347.522 502.941 347.99L498.944 350.298Z" fill="#E2DEF7"/>
<path d="M513.204 358.531C512.39 359.001 511.06 359.001 510.247 358.531L500.822 353.09C500.01 352.62 500.01 351.854 500.822 351.385L504.821 349.075C505.634 348.606 506.963 348.606 507.775 349.075L517.2 354.516C518.014 354.986 518.014 355.754 517.202 356.223L513.204 358.531Z" fill="#E2DEF7"/>
<path d="M527.5 366.786C526.688 367.256 525.359 367.256 524.546 366.788L515.121 361.346C514.308 360.876 514.308 360.108 515.121 359.64L519.12 357.33C519.933 356.861 521.261 356.861 522.074 357.331L531.5 362.773C532.312 363.241 532.312 364.009 531.5 364.478L527.5 366.786Z" fill="#E2DEF7"/>
<path d="M513.895 374.643C513.082 375.112 511.752 375.112 510.94 374.643L495.063 365.477C494.251 365.007 494.251 364.24 495.063 363.771L504.056 358.579C504.87 358.108 506.199 358.108 507.013 358.579L522.89 367.745C523.703 368.213 523.702 368.981 522.888 369.451L513.895 374.643Z" fill="#E2DEF7"/>
<path d="M272.861 299.203C272.047 299.673 270.717 299.673 269.904 299.203L260.91 294.01C260.097 293.541 260.097 292.773 260.911 292.304L269.904 287.111C270.717 286.641 272.046 286.641 272.858 287.111L281.853 292.304C282.666 292.773 282.666 293.541 281.854 294.01L272.861 299.203Z" fill="#E2DEF7"/>
<path d="M286.623 307.149C285.811 307.619 284.48 307.619 283.669 307.149L274.674 301.958C273.861 301.489 273.861 300.719 274.675 300.251L283.669 295.057C284.48 294.588 285.811 294.588 286.622 295.057L295.616 300.251C296.431 300.719 296.431 301.489 295.618 301.958L286.623 307.149Z" fill="#E2DEF7"/>
<path d="M300.388 315.096C299.575 315.566 298.245 315.566 297.431 315.096L288.438 309.904C287.624 309.435 287.624 308.667 288.438 308.198L297.431 303.005C298.245 302.536 299.574 302.536 300.385 303.005L309.38 308.199C310.193 308.667 310.193 309.435 309.381 309.904L300.388 315.096Z" fill="#E2DEF7"/>
<path d="M451.951 394.515C451.139 394.983 449.808 394.983 448.997 394.515L440.002 389.32C439.187 388.852 439.188 388.084 440.002 387.616L442.122 386.39C442.934 385.921 444.264 385.921 445.077 386.39L454.071 391.585C454.883 392.053 454.883 392.822 454.071 393.291L451.951 394.515Z" fill="#E2DEF7"/>
<path d="M431.18 390.612C430.368 391.082 429.038 391.082 428.227 390.612L419.233 385.421C418.418 384.95 418.418 384.183 419.233 383.715L421.351 382.491C422.164 382.02 423.494 382.02 424.307 382.491L433.301 387.683C434.114 388.153 434.114 388.92 433.301 389.388L431.18 390.612Z" fill="#E2DEF7"/>
<path d="M444.945 398.559C444.132 399.028 442.802 399.028 441.988 398.559L432.996 393.366C432.183 392.897 432.184 392.13 432.996 391.661L435.115 390.437C435.927 389.966 437.257 389.966 438.07 390.437L447.065 395.628C447.878 396.098 447.878 396.866 447.065 397.335L444.945 398.559Z" fill="#E2DEF7"/>
<path d="M458.708 406.506C457.896 406.975 456.565 406.975 455.753 406.506L446.759 401.312C445.947 400.844 445.947 400.075 446.759 399.607L448.879 398.383C449.691 397.914 451.021 397.914 451.834 398.383L460.829 403.576C461.641 404.045 461.641 404.813 460.828 405.282L458.708 406.506Z" fill="#E2DEF7"/>
<path d="M314.152 323.043C313.339 323.512 312.008 323.512 311.196 323.043L302.201 317.85C301.388 317.382 301.388 316.614 302.202 316.145L311.196 310.951C312.008 310.482 313.338 310.482 314.15 310.951L323.144 316.145C323.957 316.614 323.957 317.382 323.144 317.85L314.152 323.043Z" fill="#E2DEF7"/>
<path d="M389.909 366.782C389.096 367.252 387.766 367.252 386.952 366.782L315.966 325.797C315.151 325.328 315.151 324.56 315.966 324.091L324.961 318.897C325.773 318.428 327.102 318.428 327.914 318.897L398.901 359.884C399.714 360.352 399.715 361.12 398.904 361.59L389.909 366.782Z" fill="#E2DEF7"/>
<path d="M403.635 374.708C402.822 375.178 401.493 375.178 400.679 374.708L391.686 369.515C390.873 369.046 390.873 368.278 391.686 367.81L400.679 362.615C401.493 362.146 402.822 362.146 403.635 362.616L412.628 367.81C413.441 368.278 413.441 369.046 412.628 369.515L403.635 374.708Z" fill="#E2DEF7"/>
<path d="M417.398 382.655C416.586 383.125 415.256 383.125 414.445 382.655L405.451 377.463C404.637 376.994 404.637 376.225 405.451 375.757L414.445 370.562C415.256 370.094 416.586 370.094 417.398 370.564L426.392 375.757C427.206 376.225 427.206 376.994 426.393 377.463L417.398 382.655Z" fill="#E2DEF7"/>
<path d="M334.963 287.229C334.151 287.698 332.821 287.698 332.01 287.229L323.015 282.035C322.203 281.566 322.203 280.799 323.015 280.33L332.01 275.136C332.821 274.666 334.151 274.666 334.963 275.136L343.958 280.329C344.771 280.799 344.771 281.566 343.959 282.035L334.963 287.229Z" fill="#E2DEF7"/>
<path d="M321.164 279.26C320.352 279.729 319.021 279.729 318.209 279.26L302.333 270.093C301.52 269.623 301.52 268.858 302.333 268.389L311.328 263.196C312.141 262.727 313.47 262.727 314.281 263.196L330.159 272.361C330.97 272.83 330.97 273.598 330.159 274.067L321.164 279.26Z" fill="#E2DEF7"/>
<path d="M348.728 295.175C347.916 295.644 346.586 295.644 345.773 295.175L336.779 289.982C335.966 289.512 335.966 288.745 336.779 288.277L345.773 283.083C346.586 282.613 347.916 282.613 348.728 283.083L357.722 288.276C358.535 288.745 358.535 289.512 357.723 289.982L348.728 295.175Z" fill="#E2DEF7"/>
<path d="M362.492 303.122C361.68 303.59 360.348 303.59 359.536 303.121L350.543 297.928C349.73 297.46 349.73 296.691 350.543 296.224L359.536 291.029C360.348 290.56 361.68 290.56 362.492 291.029L371.485 296.223C372.297 296.691 372.297 297.46 371.485 297.928L362.492 303.122Z" fill="#E2DEF7"/>
<path d="M376.255 311.069C375.443 311.539 374.112 311.539 373.301 311.068L364.307 305.876C363.493 305.407 363.493 304.639 364.307 304.171L373.301 298.976C374.112 298.507 375.443 298.507 376.255 298.976L385.25 304.171C386.063 304.639 386.063 305.407 385.25 305.876L376.255 311.069Z" fill="#E2DEF7"/>
<path d="M390.02 319.016C389.207 319.485 387.877 319.485 387.065 319.015L378.07 313.823C377.257 313.353 377.257 312.586 378.07 312.117L387.065 306.923C387.877 306.453 389.207 306.453 390.02 306.923L399.014 312.117C399.827 312.586 399.827 313.353 399.014 313.823L390.02 319.016Z" fill="#E2DEF7"/>
<path d="M403.783 326.962C402.971 327.432 401.641 327.432 400.83 326.962L391.835 321.771C391.02 321.301 391.02 320.532 391.834 320.064L400.83 314.87C401.641 314.401 402.971 314.401 403.783 314.87L412.777 320.064C413.592 320.532 413.592 321.3 412.778 321.769L403.783 326.962Z" fill="#E2DEF7"/>
<path d="M417.548 334.91C416.736 335.379 415.405 335.379 414.592 334.91L405.599 329.717C404.784 329.248 404.784 328.48 405.597 328.011L414.593 322.817C415.405 322.347 416.736 322.347 417.548 322.817L426.541 328.011C427.355 328.48 427.355 329.248 426.541 329.717L417.548 334.91Z" fill="#E2DEF7"/>
<path d="M431.31 342.857C430.498 343.327 429.168 343.327 428.356 342.857L419.363 337.664C418.549 337.195 418.549 336.426 419.363 335.958L428.356 330.765C429.168 330.295 430.498 330.295 431.312 330.765L440.305 335.958C441.119 336.426 441.119 337.194 440.305 337.663L431.31 342.857Z" fill="#E2DEF7"/>
<path d="M445.076 350.803C444.263 351.273 442.933 351.273 442.121 350.803L433.127 345.611C432.312 345.141 432.312 344.373 433.127 343.904L442.121 338.711C442.933 338.241 444.263 338.241 445.076 338.711L454.07 343.904C454.882 344.373 454.882 345.141 454.07 345.61L445.076 350.803Z" fill="#E2DEF7"/>
<path d="M458.84 358.749C458.027 359.219 456.697 359.219 455.884 358.749L446.891 353.557C446.078 353.088 446.078 352.32 446.891 351.851L455.884 346.657C456.697 346.188 458.027 346.188 458.84 346.657L467.833 351.851C468.646 352.319 468.646 353.087 467.833 353.557L458.84 358.749Z" fill="#E2DEF7"/>
<path d="M472.602 366.696C471.79 367.167 470.46 367.167 469.647 366.696L460.653 361.504C459.84 361.035 459.84 360.267 460.653 359.799L469.647 354.604C470.46 354.135 471.79 354.135 472.603 354.604L481.597 359.799C482.408 360.267 482.408 361.035 481.597 361.504L472.602 366.696Z" fill="#E2DEF7"/>
<path d="M486.368 374.643C485.554 375.112 484.224 375.112 483.412 374.643L474.418 369.45C473.604 368.98 473.604 368.214 474.418 367.746L483.412 362.55C484.224 362.08 485.554 362.08 486.368 362.55L495.363 367.744C496.176 368.212 496.175 368.98 495.361 369.45L486.368 374.643Z" fill="#E2DEF7"/>
<path d="M500.131 382.591C499.319 383.06 497.987 383.06 497.175 382.591L488.181 377.398C487.367 376.928 487.367 376.162 488.18 375.692L497.175 370.497C497.987 370.028 499.318 370.028 500.131 370.498L509.126 375.692C509.939 376.16 509.938 376.928 509.124 377.398L500.131 382.591Z" fill="#E2DEF7"/>
<path d="M324.435 297.044C323.623 297.513 322.293 297.513 321.481 297.044L312.486 291.851C311.672 291.382 311.672 290.613 312.486 290.145L321.481 284.951C322.293 284.481 323.623 284.481 324.435 284.951L333.43 290.145C334.244 290.613 334.244 291.382 333.43 291.85L324.435 297.044Z" fill="#E2DEF7"/>
<path d="M310.671 289.096C309.859 289.565 308.531 289.565 307.718 289.096L288.568 278.04C287.755 277.573 287.755 276.804 288.568 276.335L297.564 271.14C298.375 270.672 299.704 270.672 300.517 271.14L319.666 282.197C320.478 282.665 320.478 283.434 319.666 283.903L310.671 289.096Z" fill="#E2DEF7"/>
<path d="M338.199 304.99C337.387 305.46 336.058 305.46 335.244 304.99L326.251 299.797C325.437 299.328 325.437 298.56 326.251 298.091L335.244 292.898C336.058 292.428 337.387 292.428 338.2 292.898L347.194 298.091C348.007 298.56 348.007 299.328 347.194 299.797L338.199 304.99Z" fill="#E2DEF7"/>
<path d="M351.962 312.937C351.151 313.406 349.822 313.406 349.01 312.937L340.014 307.745C339.201 307.275 339.201 306.507 340.014 306.039L349.01 300.845C349.822 300.376 351.151 300.376 351.963 300.845L360.958 306.039C361.771 306.507 361.771 307.275 360.958 307.745L351.962 312.937Z" fill="#E2DEF7"/>
<path d="M365.727 320.883C364.916 321.353 363.586 321.353 362.774 320.883L353.78 315.69C352.965 315.221 352.965 314.453 353.779 313.985L362.774 308.791C363.586 308.322 364.916 308.322 365.727 308.791L374.723 313.985C375.535 314.453 375.535 315.221 374.723 315.69L365.727 320.883Z" fill="#E2DEF7"/>
<path d="M379.493 328.831C378.681 329.3 377.351 329.3 376.538 328.831L367.543 323.637C366.731 323.168 366.731 322.399 367.543 321.931L376.538 316.738C377.35 316.268 378.68 316.268 379.493 316.739L388.486 321.931C389.3 322.4 389.3 323.168 388.486 323.637L379.493 328.831Z" fill="#E2DEF7"/>
<path d="M393.255 336.778C392.443 337.247 391.114 337.247 390.301 336.778L381.308 331.585C380.494 331.116 380.494 330.347 381.308 329.879L390.301 324.685C391.114 324.215 392.443 324.215 393.256 324.685L402.25 329.879C403.063 330.347 403.063 331.116 402.25 331.585L393.255 336.778Z" fill="#E2DEF7"/>
<path d="M407.021 344.725C406.208 345.194 404.879 345.194 404.066 344.725L395.072 339.532C394.259 339.062 394.259 338.295 395.072 337.827L404.066 332.633C404.879 332.164 406.208 332.164 407.021 332.633L416.015 337.827C416.828 338.295 416.828 339.063 416.015 339.532L407.021 344.725Z" fill="#E2DEF7"/>
<path d="M420.783 352.672C419.971 353.142 418.641 353.142 417.83 352.672L408.836 347.48C408.022 347.011 408.022 346.242 408.835 345.774L417.83 340.579C418.64 340.11 419.97 340.11 420.782 340.579L429.778 345.774C430.592 346.243 430.592 347.011 429.778 347.48L420.783 352.672Z" fill="#E2DEF7"/>
<path d="M434.548 360.618C433.736 361.087 432.406 361.087 431.593 360.618L422.6 355.426C421.786 354.956 421.786 354.188 422.599 353.72L431.593 348.526C432.405 348.057 433.735 348.057 434.548 348.526L443.542 353.72C444.356 354.188 444.356 354.956 443.542 355.426L434.548 360.618Z" fill="#E2DEF7"/>
<path d="M448.311 368.566C447.499 369.035 446.169 369.035 445.357 368.566L436.362 363.373C435.549 362.903 435.549 362.135 436.362 361.666L445.357 356.473C446.169 356.003 447.499 356.003 448.311 356.474L457.305 361.666C458.119 362.136 458.119 362.904 457.305 363.373L448.311 368.566Z" fill="#E2DEF7"/>
<path d="M462.075 376.512C461.264 376.982 459.934 376.982 459.122 376.512L450.127 371.319C449.314 370.85 449.314 370.082 450.127 369.613L459.122 364.42C459.933 363.95 461.263 363.95 462.075 364.42L471.069 369.613C471.882 370.083 471.882 370.85 471.07 371.319L462.075 376.512Z" fill="#E2DEF7"/>
<path d="M486.367 390.536C485.553 391.006 484.224 391.006 483.412 390.536L463.89 379.265C463.079 378.796 463.079 378.028 463.89 377.559L472.885 372.366C473.698 371.897 475.026 371.897 475.84 372.366L495.362 383.638C496.173 384.106 496.173 384.874 495.362 385.344L486.367 390.536Z" fill="#E2DEF7"/>
<path d="M317.689 309.044C316.877 309.513 315.548 309.513 314.737 309.044L305.742 303.851C304.929 303.381 304.929 302.612 305.742 302.145L314.737 296.95C315.548 296.482 316.877 296.482 317.69 296.95L326.686 302.145C327.499 302.612 327.499 303.381 326.686 303.851L317.689 309.044Z" fill="#E2DEF7"/>
<path d="M303.899 301.079C303.087 301.549 301.755 301.549 300.943 301.078L274.804 285.987C273.992 285.518 273.992 284.751 274.804 284.282L283.8 279.089C284.612 278.619 285.942 278.619 286.755 279.089L312.894 294.181C313.706 294.649 313.706 295.417 312.894 295.886L303.899 301.079Z" fill="#E2DEF7"/>
<path d="M331.454 316.989C330.643 317.458 329.312 317.458 328.5 316.989L319.506 311.796C318.691 311.327 318.691 310.558 319.505 310.09L328.5 304.897C329.312 304.428 330.643 304.428 331.454 304.897L340.45 310.09C341.262 310.558 341.262 311.327 340.45 311.796L331.454 316.989Z" fill="#E2DEF7"/>
<path d="M345.218 324.936C344.406 325.406 343.077 325.406 342.264 324.936L333.269 319.744C332.456 319.274 332.456 318.506 333.269 318.038L342.264 312.844C343.077 312.374 344.406 312.374 345.219 312.844L354.212 318.038C355.026 318.506 355.026 319.274 354.212 319.743L345.218 324.936Z" fill="#E2DEF7"/>
<path d="M358.982 332.882C358.171 333.352 356.841 333.352 356.029 332.882L347.033 327.69C346.219 327.22 346.219 326.453 347.033 325.984L356.029 320.791C356.841 320.321 358.171 320.321 358.982 320.791L367.977 325.984C368.789 326.453 368.789 327.22 367.977 327.69L358.982 332.882Z" fill="#E2DEF7"/>
<path d="M372.745 340.83C371.933 341.3 370.605 341.299 369.791 340.828L360.797 335.637C359.983 335.168 359.983 334.4 360.797 333.932L369.791 328.737C370.604 328.268 371.933 328.268 372.745 328.737L381.74 333.932C382.553 334.4 382.553 335.168 381.742 335.637L372.745 340.83Z" fill="#E2DEF7"/>
<path d="M386.51 348.777C385.698 349.246 384.368 349.246 383.556 348.776L374.561 343.584C373.749 343.115 373.749 342.347 374.561 341.878L383.556 336.685C384.368 336.215 385.698 336.215 386.51 336.685L395.503 341.878C396.318 342.347 396.318 343.115 395.503 343.584L386.51 348.777Z" fill="#E2DEF7"/>
<path d="M400.275 356.724C399.463 357.193 398.132 357.193 397.319 356.723L388.327 351.531C387.513 351.062 387.513 350.294 388.325 349.825L397.32 344.631C398.132 344.162 399.463 344.162 400.275 344.631L409.268 349.825C410.081 350.294 410.081 351.062 409.268 351.531L400.275 356.724Z" fill="#E2DEF7"/>
<path d="M414.039 364.67C413.226 365.14 411.896 365.14 411.084 364.669L402.09 359.479C401.278 359.009 401.278 358.24 402.09 357.772L411.084 352.578C411.896 352.109 413.226 352.109 414.039 352.578L423.032 357.772C423.846 358.24 423.846 359.009 423.032 359.479L414.039 364.67Z" fill="#E2DEF7"/>
<path d="M427.802 372.618C426.99 373.087 425.66 373.087 424.849 372.617L415.855 367.425C415.041 366.956 415.041 366.187 415.854 365.719L424.849 360.524C425.66 360.056 426.99 360.055 427.802 360.524L436.797 365.719C437.61 366.187 437.61 366.956 436.797 367.425L427.802 372.618Z" fill="#E2DEF7"/>
<path d="M441.566 380.564C440.754 381.033 439.423 381.033 438.611 380.564L429.617 375.371C428.804 374.902 428.804 374.134 429.617 373.666L438.611 368.472C439.423 368.003 440.754 368.003 441.566 368.472L450.56 373.666C451.374 374.134 451.374 374.902 450.56 375.371L441.566 380.564Z" fill="#E2DEF7"/>
<path d="M472.603 398.484C471.791 398.954 470.46 398.954 469.648 398.484L443.38 383.318C442.567 382.848 442.567 382.082 443.38 381.612L452.376 376.42C453.188 375.949 454.518 375.949 455.33 376.42L481.597 391.585C482.408 392.053 482.408 392.821 481.597 393.292L472.603 398.484Z" fill="#E2DEF7"/>
<path d="M301.067 249.951L314.509 257.679L346.67 238.836L333.565 231.27L301.067 249.951Z" fill="black" fill-opacity="0.3"/>
<path d="M567.212 366.061L551.327 356.891L519.898 376.394L534.638 384.867L567.212 366.061Z" fill="black" fill-opacity="0.3"/>
<path d="M547.12 354.589L451.06 299.132L419.631 318.635L514.96 373.433L547.12 354.589Z" fill="black" fill-opacity="0.3"/>
<path d="M446.904 296.314L350.844 240.857L319.416 260.36L414.744 315.157L446.904 296.314Z" fill="black" fill-opacity="0.3"/>
<path d="M527.075 478.21L541.31 470.164L495.238 443.62L501.442 440.894L418.952 393.366C431.371 385.019 437.602 374.66 437.602 364.291V350.312C437.603 338.874 430.047 327.44 414.934 318.712C399.82 309.987 380.014 305.624 360.203 305.624C340.396 305.624 320.589 309.989 305.478 318.712C290.364 327.44 282.808 338.874 282.808 350.311V364.29C282.808 375.728 290.364 387.163 305.476 395.888C320.59 404.614 340.398 408.979 360.205 408.978C376.465 408.979 392.72 406.032 406.382 400.153L436.48 417.495L428.407 422.056C428.407 422.056 426.69 423.548 429.834 425.36L521.543 478.198C521.543 478.198 524.492 479.671 527.075 478.21ZM292.496 350.311C292.496 340.307 299.107 330.301 312.328 322.668C325.549 315.034 342.876 311.22 360.203 311.218C377.534 311.218 394.863 315.034 408.084 322.668C421.304 330.301 427.913 340.308 427.913 350.312C427.913 360.317 421.303 370.321 408.084 377.953C394.861 385.587 377.534 389.404 360.205 389.404L313.022 374.957L292.496 350.311Z" fill="black" fill-opacity="0.3"/>
<path d="M421.336 314.398C406.223 305.672 386.416 301.31 366.606 301.31C346.799 301.31 326.992 305.673 311.881 314.398C296.768 323.124 289.211 334.56 289.211 345.996V359.977C289.211 371.412 296.768 382.848 311.879 391.574C326.994 400.299 346.801 404.663 366.609 404.662C386.417 404.663 406.223 400.299 421.336 391.574C436.449 382.848 444.006 371.414 444.006 359.979V345.997C444.007 334.561 436.45 323.124 421.336 314.398ZM414.487 373.638C401.263 381.274 383.937 385.089 366.609 385.089C349.281 385.089 331.953 381.274 318.73 373.638C305.509 366.005 298.9 355.999 298.9 345.996C298.9 335.992 305.509 325.989 318.73 318.354C331.952 310.722 349.278 306.907 366.606 306.904C383.937 306.904 401.265 310.722 414.487 318.354C427.708 325.989 434.317 335.992 434.317 345.997C434.317 356.001 427.704 366.005 414.487 373.638Z" fill="#8B8B8B"/>
<path d="M318.731 326.76C331.953 319.126 349.278 315.311 366.606 315.311C383.937 315.309 401.266 319.126 414.488 326.76C425.854 333.323 432.319 341.641 433.914 350.2C434.174 348.803 434.317 347.4 434.317 345.998C434.317 335.993 427.709 325.989 414.488 318.354C401.266 310.722 383.937 306.904 366.606 306.904C349.278 306.906 331.953 310.722 318.731 318.354C305.51 325.989 298.901 335.993 298.901 345.997C298.901 347.4 299.044 348.803 299.303 350.2C300.9 341.639 307.365 333.323 318.731 326.76Z" fill="#C1C1C1"/>
<path d="M366.607 308.93C349.279 308.93 331.953 312.744 318.731 320.378C305.51 328.013 298.901 338.018 298.901 348.022C298.901 358.025 305.51 368.031 318.731 375.664C331.954 383.299 349.282 387.116 366.61 387.115C383.938 387.116 401.264 383.299 414.488 375.664C427.705 368.031 434.318 358.027 434.318 348.022C434.318 338.018 427.709 328.013 414.488 320.378C401.266 312.744 383.938 308.929 366.607 308.93Z" fill="#77D2FF" fill-opacity="0.3"/>
<path d="M413.032 370.641C400.363 376.862 383.76 379.973 367.157 379.973C350.553 379.973 333.953 376.862 321.283 370.641C315.912 368.005 311.69 365.019 308.598 361.835C311.674 365.887 316.068 369.685 321.813 373.004C334.184 380.148 350.396 383.718 366.609 383.718C382.822 383.718 399.032 380.148 411.403 373.004C415.206 370.808 418.416 368.404 421.05 365.854C418.739 367.543 416.072 369.15 413.032 370.641Z" fill="white"/>
<path d="M421.336 314.399C406.223 305.673 386.416 301.311 366.606 301.311C346.799 301.311 326.992 305.674 311.881 314.399C296.768 323.125 289.211 334.561 289.211 345.997C289.211 357.433 296.768 368.869 311.879 377.595C326.994 386.321 346.801 390.685 366.609 390.683C386.417 390.685 406.223 386.321 421.336 377.595C436.449 368.87 444.006 357.436 444.006 345.998C444.007 334.562 436.45 323.125 421.336 314.399ZM414.487 373.639C401.263 381.275 383.937 385.09 366.609 385.09C349.281 385.09 331.953 381.275 318.73 373.639C305.509 366.006 298.9 356 298.9 345.997C298.9 335.993 305.509 325.989 318.73 318.354C331.952 310.722 349.278 306.907 366.606 306.904C383.937 306.904 401.265 310.722 414.487 318.354C427.708 325.989 434.317 335.993 434.317 345.998C434.317 356.002 427.704 366.006 414.487 373.639Z" fill="#C1C1C1"/>
<path d="M414.488 320.378C401.266 312.744 383.938 308.929 366.607 308.93C349.279 308.93 331.952 312.744 318.73 320.378C305.886 327.795 299.3 337.451 298.935 347.167C298.991 348.181 299.116 349.19 299.303 350.2C300.9 341.639 307.364 333.323 318.73 326.76C331.952 319.126 349.279 315.311 366.607 315.311C383.938 315.309 401.266 319.126 414.488 326.76C425.854 333.323 432.319 341.641 433.914 350.2C434.103 349.19 434.225 348.181 434.281 347.167C433.916 337.451 427.332 327.795 414.488 320.378Z" fill="#8B8B8B"/>
<path d="M419.966 314.583C405.231 306.077 385.918 301.825 366.606 301.825C347.297 301.826 327.985 306.078 313.252 314.585C298.518 323.091 291.15 334.242 291.15 345.391C291.15 356.539 298.518 367.69 313.252 376.196C327.986 384.705 347.298 388.959 366.609 388.958C385.92 388.959 405.231 384.705 419.966 376.196C434.697 367.691 442.065 356.541 442.065 345.391C442.066 334.242 434.699 323.091 419.966 314.583ZM414.487 373.639C401.263 381.275 383.937 385.09 366.609 385.09C349.281 385.09 331.953 381.275 318.73 373.639C305.509 366.006 298.9 356 298.9 345.997C298.9 335.993 305.509 325.989 318.73 318.354C331.952 310.722 349.278 306.907 366.606 306.904C383.937 306.904 401.265 310.722 414.487 318.354C427.708 325.989 434.317 335.993 434.317 345.998C434.317 356.002 427.704 366.006 414.487 373.639Z" fill="#AAAAAA"/>
<path d="M414.488 320.378C401.266 312.744 383.937 308.929 366.606 308.93C349.278 308.93 331.952 312.744 318.73 320.378C305.509 328.013 298.901 338.018 298.901 348.022C298.901 357.675 305.074 367.323 317.384 374.845C325.855 363.659 340.013 349.268 362.386 337.495C380.543 327.945 402.519 324.611 419.473 323.601C417.928 322.489 416.275 321.409 414.488 320.378Z" fill="white" fill-opacity="0.3"/>
<path d="M358.669 312.028C345.321 313.004 332.409 316.44 322.16 322.358C317.05 325.31 313.021 328.644 310.038 332.197C312.335 330.628 314.93 329.125 317.859 327.723C328.118 322.815 340.794 319.772 354.052 318.587C355.509 316.208 357.124 313.979 358.669 312.028Z" fill="white"/>
<path d="M411.056 322.357C399.382 315.616 384.254 312.09 368.957 311.762C367.452 313.883 366.249 316.101 365.341 318.031C365.848 318.024 366.355 318.013 366.862 318.013C384.599 318.011 402.334 321.251 415.866 327.721C418.295 328.884 420.498 330.114 422.492 331.394C419.586 328.14 415.782 325.086 411.056 322.357Z" fill="white"/>
<path d="M451.399 397.084L421.962 380.231C420.844 379.594 419.303 379.69 417.607 380.67C414.191 382.643 411.425 387.437 411.425 391.378C411.425 393.361 412.125 394.752 413.255 395.392L442.694 412.245C443.811 412.878 445.347 412.778 447.045 411.801C450.458 409.83 453.226 405.037 453.226 401.093C453.226 399.113 452.525 397.726 451.399 397.084Z" fill="#AAAAAA"/>
<path d="M453.227 401.093C453.227 405.037 450.458 409.83 447.045 411.801C445.348 412.779 443.812 412.878 442.695 412.245C441.564 411.607 440.863 410.214 440.863 408.232C440.863 404.29 443.63 399.496 447.045 397.525C448.743 396.544 450.282 396.448 451.4 397.085C452.526 397.727 453.227 399.114 453.227 401.093Z" fill="#B8BEC3"/>
<path d="M412.289 387.256C411.744 388.634 411.426 390.053 411.426 391.378C411.426 393.361 412.126 394.753 413.257 395.393L442.694 412.245C443.811 412.878 445.349 412.778 447.046 411.801C448.161 411.156 449.205 410.208 450.108 409.089L412.289 387.256Z" fill="#8B8B8B"/>
<path d="M546.716 444.461L456.016 393.603C453.933 392.418 451.065 392.597 447.897 394.427C441.532 398.101 437.603 405.312 437.603 412.659C437.603 416.357 438.908 418.947 441.018 420.141L530.489 472.726C532.571 473.906 535.436 473.722 538.598 471.897C544.961 468.222 550.121 459.287 550.121 451.939C550.121 448.246 548.82 445.658 546.716 444.461Z" fill="#5686C2"/>
<path d="M471.578 485.229C474.05 486.657 474.05 488.993 471.578 490.419L452.588 501.383C450.115 502.811 446.07 502.811 443.599 501.383L424.608 490.419C422.137 488.993 422.136 486.657 424.607 485.229L443.599 474.265C446.07 472.837 450.115 472.837 452.588 474.265L471.578 485.229Z" fill="#8BAF3D"/>
<path d="M159.041 366.322C161.513 367.75 161.513 370.086 159.041 371.512L140.051 382.476C137.578 383.904 133.533 383.904 131.062 382.476L112.071 371.512C109.6 370.086 109.599 367.75 112.07 366.322L131.062 355.358C133.533 353.93 137.578 353.93 140.051 355.358L159.041 366.322Z" fill="#8BAF3D"/>
<path d="M585.057 428.203C586.818 429.222 586.818 430.886 585.057 431.902L571.524 439.714C569.761 440.73 566.879 440.73 565.118 439.714L551.586 431.902C549.826 430.886 549.825 429.222 551.586 428.203L565.118 420.391C566.879 419.374 569.761 419.374 571.524 420.391L585.057 428.203Z" fill="#8BAF3D"/>
<path d="M627.917 446.153C629.045 446.805 629.045 447.871 627.917 448.522L619.253 453.523C618.125 454.174 616.279 454.174 615.151 453.523L606.487 448.522C605.36 447.871 605.359 446.805 606.487 446.153L615.151 441.151C616.279 440.5 618.125 440.5 619.253 441.151L627.917 446.153Z" fill="#8BAF3D"/>
<path d="M347.45 466.707C349.304 467.779 349.304 469.531 347.45 470.602L333.212 478.818C331.358 479.889 328.327 479.889 326.473 478.818L312.236 470.602C310.385 469.531 310.383 467.779 312.236 466.707L326.473 458.489C328.327 457.419 331.358 457.419 333.212 458.489L347.45 466.707Z" fill="#8BAF3D"/>
<path d="M157.545 411.461C158.673 412.113 158.673 413.179 157.545 413.83L148.881 418.831C147.753 419.482 145.907 419.482 144.779 418.831L136.115 413.83C134.988 413.179 134.987 412.113 136.115 411.461L144.779 406.459C145.907 405.808 147.753 405.808 148.881 406.459L157.545 411.461Z" fill="#8BAF3D"/>
<path d="M530.77 136.061C530.77 139.799 533.415 144.387 536.654 146.255L557.715 158.415C560.952 160.283 563.6 158.754 563.6 155.017V130.698C563.6 126.958 560.954 122.372 557.715 120.502L536.654 108.344C533.415 106.475 530.77 108.003 530.77 111.743V136.061Z" fill="#FFD22D"/>
<path d="M563.602 155.017V130.698C563.602 126.958 560.956 122.373 557.717 120.504L536.655 108.345C535.23 107.523 533.921 107.358 532.901 107.75L536.452 105.574C537.523 104.893 539.038 104.954 540.706 105.918L561.769 118.078C565.006 119.947 567.653 124.534 567.657 128.272L567.652 152.591C567.652 154.508 566.957 155.842 565.843 156.437L561.947 158.771V158.767C562.969 158.132 563.602 156.84 563.602 155.017Z" fill="#EBAC07"/>
<path d="M554.853 128.386L553.689 126.372L551.011 127.919C551.481 128.534 551.919 129.179 552.314 129.856L554.853 128.386Z" fill="white"/>
<path d="M542.545 123.03L539.869 118.395L538.705 119.069L541.244 123.465C541.636 123.242 542.076 123.106 542.545 123.03Z" fill="white"/>
<path d="M547.602 124.595V119.948L545.956 118.999V123.645C546.229 123.767 546.498 123.861 546.777 124.023C547.061 124.185 547.328 124.403 547.602 124.595Z" fill="white"/>
<path d="M536.184 126.541L538.945 128.133C538.971 127.494 539.061 126.913 539.208 126.384L536.184 124.641V126.541Z" fill="white"/>
<path d="M554.351 135.128C554.494 135.824 554.584 136.509 554.615 137.178L557.373 138.772V136.873L554.351 135.128Z" fill="white"/>
<path d="M546.777 126.19C543.468 124.278 540.779 125.828 540.779 129.654C540.779 131.461 541.563 133.389 542.356 135.247C543.18 137.171 544.243 138.359 544.243 140.036V143.61C544.243 144.405 544.806 145.379 545.491 145.774L548.066 147.263C548.753 147.658 549.314 147.334 549.314 146.539C549.314 146.539 549.317 144.089 549.314 142.964C549.314 141.289 550.379 141.326 551.198 140.353C551.995 139.412 552.778 138.387 552.781 136.582C552.778 132.755 550.09 128.1 546.777 126.19ZM550.014 136.152C550.014 136.152 550.764 133.348 547.26 127.673C547.26 127.673 551.984 130.905 551.848 137.213L550.014 136.152Z" fill="white"/>
<path d="M488.575 111.813C488.575 115.551 491.221 120.139 494.461 122.007L515.522 134.167C518.759 136.035 521.409 134.506 521.409 130.77V106.451C521.409 102.712 518.76 98.126 515.522 96.256L494.461 84.097C491.223 82.229 488.575 83.756 488.575 87.495V111.813Z" fill="#372780"/>
<path d="M521.409 130.769V106.451C521.409 102.711 518.76 98.126 515.522 96.256L494.461 84.097C493.036 83.275 491.727 83.11 490.709 83.503V83.502L494.257 81.326C495.331 80.645 496.843 80.707 498.513 81.67L519.575 93.83C522.811 95.698 525.459 100.285 525.463 104.024L525.459 128.343C525.459 130.26 524.763 131.595 523.649 132.189L519.752 134.523V134.519C520.775 133.884 521.409 132.593 521.409 130.769Z" fill="#281F66"/>
<path d="M513.653 107.662L509.744 105.406V102.346C509.744 101.926 509.448 101.41 509.083 101.201L500.721 96.373C500.358 96.163 500.06 96.336 500.06 96.756L500.059 99.813L496.332 97.662C495.969 97.451 495.672 97.623 495.672 98.044L495.671 113.299C495.671 113.719 495.968 114.235 496.332 114.446L513.653 124.446C514.018 124.655 514.314 124.481 514.314 124.062L514.315 108.807C514.315 108.388 514.018 107.872 513.653 107.662ZM501.364 98.226L508.44 102.312V104.652L501.364 100.566V98.226ZM512.093 119.265L497.546 110.867V110.001L512.093 118.398V119.265ZM512.095 115.925L497.546 107.524V106.658L512.095 115.058V115.925ZM512.095 112.583L497.546 104.184V103.317L512.095 111.717V112.583Z" fill="#F5F5F5"/>
<path d="M445.315 86.97C445.315 90.708 447.961 95.297 451.199 97.164L472.26 109.324C475.498 111.192 478.147 109.664 478.147 105.927V81.608C478.147 77.868 475.499 73.283 472.26 71.413L451.199 59.254C447.961 57.386 445.315 58.913 445.315 62.652V86.97Z" fill="#DF6A28"/>
<path d="M478.147 105.926V81.607C478.147 77.868 475.498 73.283 472.259 71.413L451.198 59.254C449.773 58.431 448.466 58.268 447.447 58.66V58.659L450.995 56.483C452.069 55.802 453.582 55.864 455.25 56.828L476.312 68.987C479.549 70.855 482.196 75.442 482.199 79.181L482.197 103.5C482.197 105.418 481.501 106.752 480.387 107.346L476.491 109.68V109.676C477.513 109.041 478.147 107.751 478.147 105.926Z" fill="#AA4F20"/>
<path d="M454.689 82.42V86.582C454.689 87.782 455.375 89.381 456.75 91.091C459.5 94.512 463.959 97.086 466.709 96.84C468.084 96.717 468.769 95.912 468.769 94.711V90.55L461.73 91.179L454.689 82.42Z" fill="#F5F5F5"/>
<path d="M474.177 89.188L461.73 73.705L449.283 74.817L461.73 90.299L474.177 89.188Z" fill="#F5F5F5"/>
<path d="M402.949 62.046C402.949 65.784 405.593 70.373 408.832 72.24L429.894 84.4C433.132 86.269 435.779 84.739 435.779 81.002V56.683C435.779 52.944 433.132 48.358 429.894 46.488L408.832 34.329C405.594 32.461 402.949 33.989 402.949 37.728V62.046Z" fill="#C81F56"/>
<path d="M435.781 81.002V56.683C435.781 52.944 433.134 48.357 429.896 46.488L408.833 34.329C407.41 33.506 406.1 33.345 405.08 33.736V33.735L408.63 31.559C409.701 30.878 411.216 30.94 412.886 31.903L433.948 44.063C437.184 45.932 439.831 50.518 439.836 54.257L439.83 78.574C439.83 80.492 439.135 81.828 438.022 82.422L434.125 84.755V84.752C435.148 84.117 435.781 82.826 435.781 81.002Z" fill="#8B1641"/>
<path d="M429.522 58.521L409.208 46.793L419.605 58.701L429.522 58.521Z" fill="#F5F5F5"/>
<path d="M419.605 61.058L409.208 46.792V62.763L429.522 74.49V58.521L419.605 61.058Z" fill="#F5F5F5"/>
<path d="M360.677 38.442C360.677 42.18 363.322 46.769 366.561 48.636L387.621 60.796C390.86 62.665 393.509 61.135 393.509 57.398V33.079C393.509 29.34 390.861 24.754 387.621 22.884L366.561 10.726C363.322 8.85702 360.677 10.385 360.677 14.124V38.442Z" fill="#5686C2"/>
<path d="M393.509 57.398V33.079C393.509 29.34 390.861 24.755 387.621 22.885L366.561 10.727C365.136 9.90401 363.828 9.74001 362.808 10.131L366.357 7.95601C367.431 7.27501 368.944 7.33701 370.613 8.30001L391.675 20.459C394.912 22.328 397.559 26.916 397.562 30.654L397.559 54.972C397.559 56.89 396.863 58.224 395.749 58.818L391.854 61.152V61.148C392.875 60.513 393.509 59.221 393.509 57.398Z" fill="#396C9E"/>
<path d="M382.416 42.229L377.92 44.824L373.424 37.038C370.845 37.321 369.116 39.574 369.116 43.291L386.724 53.454C386.724 49.737 384.994 45.49 382.416 42.229Z" fill="#F5F5F5"/>
<path d="M377.92 37.272C381.467 39.319 384.342 37.658 384.342 33.564C384.342 29.468 381.467 24.487 377.92 22.439C374.374 20.392 371.498 22.052 371.498 26.148C371.498 30.243 374.372 35.224 377.92 37.272Z" fill="#F5F5F5"/>
<path d="M430.311 215.212C430.311 215.212 430.31 215.212 430.31 215.212L430.301 215.207C430.3 215.207 430.3 215.206 430.3 215.205L430.3 215.189C430.3 215.188 430.3 215.188 430.301 215.188L430.31 215.193C430.31 215.194 430.311 215.194 430.311 215.195L430.311 215.212Z" fill="black" fill-opacity="0.3"/>
<path d="M430.308 215.213C430.308 215.214 430.308 215.214 430.307 215.214L430.298 215.208C430.298 215.208 430.297 215.207 430.297 215.207L430.297 215.19C430.297 215.19 430.298 215.189 430.298 215.19L430.307 215.195C430.308 215.195 430.308 215.196 430.308 215.196L430.308 215.213Z" fill="#FAFAFA"/>
<path d="M430.306 215.199C430.306 215.197 430.305 215.194 430.303 215.193C430.301 215.192 430.3 215.193 430.3 215.195C430.3 215.198 430.301 215.2 430.303 215.201C430.305 215.202 430.306 215.201 430.306 215.199Z" fill="#372780"/>
<path d="M430.304 215.2C430.304 215.2 430.304 215.199 430.304 215.199L430.302 215.197C430.302 215.197 430.302 215.199 430.302 215.199C430.302 215.199 430.302 215.2 430.303 215.2C430.303 215.201 430.304 215.2 430.304 215.2Z" fill="#FFAF73"/>
<path d="M430.302 215.196C430.302 215.196 430.301 215.196 430.301 215.196C430.301 215.196 430.301 215.196 430.301 215.196C430.301 215.196 430.301 215.197 430.301 215.197C430.301 215.197 430.302 215.197 430.302 215.197L430.302 215.196Z" fill="#E49B6A"/>
<path d="M430.301 215.196C430.301 215.196 430.301 215.196 430.301 215.196C430.301 215.196 430.301 215.196 430.301 215.196C430.301 215.196 430.301 215.197 430.301 215.197C430.301 215.197 430.302 215.197 430.302 215.197L430.301 215.196Z" fill="#D78F69"/>
<path d="M430.301 215.196C430.301 215.196 430.301 215.196 430.301 215.196C430.301 215.196 430.301 215.196 430.301 215.196C430.301 215.196 430.301 215.197 430.301 215.197C430.301 215.197 430.302 215.197 430.302 215.197L430.301 215.196Z" fill="#D9A782"/>
<path d="M430.304 215.197C430.304 215.197 430.304 215.197 430.304 215.197C430.305 215.197 430.305 215.198 430.305 215.198C430.305 215.198 430.304 215.198 430.304 215.198C430.304 215.199 430.304 215.199 430.304 215.198L430.304 215.197Z" fill="#FFAF73"/>
<path d="M430.303 215.194C430.303 215.194 430.304 215.195 430.304 215.196C430.304 215.197 430.304 215.197 430.304 215.197C430.304 215.197 430.304 215.198 430.304 215.198C430.304 215.198 430.304 215.199 430.304 215.199C430.304 215.199 430.304 215.199 430.304 215.199C430.303 215.199 430.303 215.199 430.303 215.199C430.303 215.199 430.302 215.199 430.302 215.198C430.302 215.198 430.302 215.198 430.302 215.197C430.302 215.197 430.302 215.197 430.302 215.196C430.301 215.196 430.301 215.196 430.301 215.195C430.301 215.195 430.301 215.195 430.302 215.194C430.302 215.194 430.302 215.194 430.303 215.194Z" fill="#FFAF73"/>
<path d="M430.303 215.199C430.302 215.198 430.302 215.198 430.302 215.197C430.302 215.197 430.302 215.197 430.302 215.196C430.302 215.196 430.302 215.195 430.302 215.195L430.301 215.195C430.301 215.195 430.301 215.195 430.301 215.195C430.301 215.196 430.302 215.196 430.302 215.196C430.302 215.197 430.302 215.197 430.302 215.197C430.302 215.198 430.302 215.198 430.302 215.198C430.302 215.199 430.303 215.199 430.303 215.199Z" fill="#E49B6A"/>
<path d="M430.304 215.199C430.304 215.199 430.304 215.199 430.304 215.199C430.304 215.199 430.304 215.198 430.304 215.198C430.304 215.198 430.304 215.197 430.304 215.197C430.304 215.197 430.304 215.197 430.304 215.197L430.304 215.197C430.304 215.197 430.304 215.198 430.304 215.198C430.304 215.198 430.304 215.198 430.304 215.198C430.304 215.199 430.304 215.199 430.303 215.199C430.303 215.199 430.303 215.199 430.303 215.199C430.303 215.199 430.303 215.199 430.304 215.199Z" fill="#E49B6A"/>
<path d="M430.303 215.198C430.303 215.198 430.303 215.197 430.303 215.197C430.303 215.197 430.303 215.197 430.303 215.197C430.303 215.196 430.303 215.196 430.303 215.196C430.302 215.196 430.302 215.196 430.302 215.195C430.302 215.195 430.302 215.195 430.302 215.195C430.302 215.195 430.302 215.195 430.303 215.195C430.303 215.196 430.304 215.196 430.304 215.196L430.302 215.194L430.302 215.194L430.302 215.194C430.301 215.195 430.301 215.195 430.301 215.195C430.301 215.196 430.302 215.196 430.302 215.196C430.302 215.197 430.302 215.197 430.302 215.197C430.302 215.198 430.302 215.198 430.302 215.198C430.302 215.199 430.303 215.199 430.303 215.199C430.303 215.199 430.303 215.198 430.303 215.198L430.303 215.198Z" fill="#E49B6A"/>
<path d="M430.304 215.197C430.304 215.196 430.304 215.195 430.303 215.194C430.301 215.193 430.301 215.194 430.301 215.195C430.301 215.195 430.301 215.195 430.301 215.196C430.301 215.196 430.301 215.196 430.301 215.196C430.302 215.196 430.302 215.196 430.302 215.196C430.302 215.196 430.302 215.195 430.302 215.195C430.302 215.195 430.302 215.195 430.302 215.195C430.302 215.195 430.302 215.194 430.302 215.194C430.302 215.194 430.303 215.195 430.303 215.195L430.303 215.195C430.303 215.195 430.304 215.195 430.304 215.196C430.304 215.196 430.304 215.196 430.304 215.196C430.304 215.197 430.304 215.197 430.304 215.197C430.304 215.197 430.304 215.198 430.304 215.198C430.304 215.198 430.304 215.197 430.304 215.197C430.304 215.197 430.304 215.197 430.304 215.197C430.304 215.197 430.304 215.197 430.304 215.197Z" fill="#5E2F11"/>
<path d="M430.303 215.195L430.302 215.194L430.302 215.194C430.303 215.196 430.304 215.196 430.304 215.196L430.303 215.195Z" fill="#5E2F11"/>
<path d="M430.301 215.199L430.301 215.2C430.302 215.201 430.302 215.201 430.303 215.201C430.303 215.202 430.304 215.202 430.304 215.202V215.2L430.303 215.2L430.301 215.199Z" fill="#D5D1EA"/>
<path d="M430.303 215.2L430.302 215.2L430.303 215.201L430.303 215.201C430.303 215.201 430.303 215.201 430.303 215.201C430.303 215.201 430.303 215.201 430.303 215.201L430.303 215.201L430.303 215.201L430.303 215.2Z" fill="#181818"/>
<path d="M430.303 215.2L430.302 215.198L430.301 215.199L430.302 215.2L430.303 215.2Z" fill="#EFEBFF"/>
<path d="M430.303 215.2L430.304 215.199L430.304 215.2L430.303 215.201L430.303 215.2Z" fill="#EFEBFF"/>
<path d="M430.3 215.198C430.3 215.199 430.301 215.2 430.302 215.2C430.301 215.199 430.302 215.198 430.302 215.198L430.3 215.198Z" fill="#2C2C2C"/>
<path d="M430.306 215.201L430.304 215.2C430.304 215.2 430.304 215.201 430.304 215.202C430.305 215.202 430.305 215.202 430.306 215.201Z" fill="#2C2C2C"/>
<path d="M430.307 215.207L430.299 215.202V215.202L430.307 215.207V215.207Z" fill="#D5D1EA"/>
<path d="M430.307 215.208L430.299 215.203V215.203L430.307 215.208L430.307 215.208Z" fill="#D5D1EA"/>
<path d="M430.307 215.209L430.299 215.204L430.299 215.204L430.307 215.209V215.209Z" fill="#D5D1EA"/>
<path d="M430.307 215.21L430.299 215.205V215.204L430.307 215.21V215.21Z" fill="#D5D1EA"/>
<path d="M430.304 215.209L430.299 215.206V215.205L430.304 215.208V215.209Z" fill="#D5D1EA"/>
<path d="M430.301 215.201L430.301 215.201L430.301 215.202L430.301 215.202L430.301 215.202L430.301 215.202L430.3 215.202L430.3 215.201L430.3 215.201L430.3 215.201L430.301 215.201Z" fill="#DC9500"/>
<path d="M430.302 215.202L430.302 215.202L430.302 215.202L430.302 215.202L430.302 215.203L430.302 215.202L430.302 215.202L430.302 215.202L430.301 215.202L430.302 215.202L430.302 215.202Z" fill="#DC9500"/>
<path d="M430.303 215.202L430.303 215.203L430.303 215.203L430.303 215.203L430.303 215.203L430.303 215.203L430.303 215.203L430.303 215.203L430.303 215.202L430.303 215.203L430.303 215.202Z" fill="#DC9500"/>
<path d="M430.304 215.203L430.304 215.203L430.305 215.204L430.304 215.204L430.304 215.204L430.304 215.204L430.304 215.204L430.304 215.203L430.304 215.203L430.304 215.203L430.304 215.203Z" fill="#D5D1EA"/>
<path d="M430.305 215.204L430.306 215.204L430.306 215.204L430.306 215.204L430.306 215.205L430.305 215.204L430.305 215.204L430.305 215.204L430.305 215.204L430.305 215.204L430.305 215.204Z" fill="#D5D1EA"/>
<g opacity="0.9965">
<path d="M580.922 362.789C580.921 368.289 577.025 370.539 572.261 367.789L493.525 322.331C488.761 319.581 484.863 312.831 484.863 307.331L484.864 160.954C484.864 155.454 488.762 153.204 493.526 155.954L572.264 201.413C577.027 204.163 580.924 210.913 580.924 216.413L580.922 362.789Z" fill="black" fill-opacity="0.3"/>
<path d="M560.771 374.504C560.77 380.004 556.874 382.254 552.11 379.504L473.373 334.046C468.609 331.296 464.711 324.546 464.712 319.046L464.713 172.67C464.713 167.17 468.611 164.92 473.375 167.67L552.113 213.129C556.876 215.879 560.773 222.629 560.773 228.129L560.771 374.504Z" fill="#FAFAFA"/>
<path d="M543.071 253.453C543.072 234.42 529.708 211.277 513.226 201.761C496.743 192.245 483.381 199.959 483.381 218.992C483.381 238.023 496.743 261.168 513.226 270.685C529.709 280.201 543.071 272.485 543.071 253.453Z" fill="#372780"/>
<path d="M530.236 243.422C530.236 243.422 531.099 251.468 527.547 254.728L527.227 252.476C527.227 252.476 525.952 256.044 519.801 254.058C513.651 252.073 503.843 243.868 502.627 239.557C502.627 239.557 503.309 242.356 503.719 243.041C503.719 243.041 498.389 234.373 498.572 230.34C498.756 226.31 503.084 220.982 503.084 220.982L513.335 214.042L519.472 216.646C519.472 216.646 526.471 223.695 526.554 224.023C526.636 224.35 530.236 243.422 530.236 243.422Z" fill="black"/>
<path d="M522.375 258.227C520.256 254.746 521.585 246.917 521.585 246.917L506.375 238.135C506.375 238.135 507.705 247.499 505.584 248.533C503.463 249.566 494.99 248.229 494.99 248.229L499.029 257.711L527.719 274.275L532.54 269.908C532.54 269.908 524.497 261.709 522.375 258.227Z" fill="#FFAF73"/>
<path d="M513.706 249.044C516.013 250.376 517.795 249.815 519.882 249.285C521.968 248.754 523.427 247.189 524.514 242.274C525.598 237.359 524.93 235.095 525.264 233.505C525.598 231.917 526.487 223.883 522.718 216.908C519.485 210.921 515.381 208.335 513.706 207.368C512.032 206.403 507.929 204.25 504.693 206.502C500.924 209.124 501.813 218.185 502.146 220.16C502.482 222.134 501.814 223.628 502.899 229.795C503.983 235.963 505.442 239.215 507.529 242.155C509.616 245.094 511.393 247.708 513.706 249.044Z" fill="#FFAF73"/>
<path d="M523.944 240.016C522.415 241.106 520.976 241.885 520.301 243.78C519.827 245.117 519.372 247.575 518.453 249.638C518.92 249.535 519.392 249.41 519.882 249.286C521.967 248.754 523.426 247.189 524.513 242.275C524.849 240.746 525.018 239.475 525.099 238.4C524.746 239.122 524.356 239.724 523.944 240.016Z" fill="#CD7A38"/>
<path d="M523.061 219.121C523.061 219.121 511.221 209.978 505.442 206.067C505.188 206.189 504.937 206.329 504.693 206.502C500.923 209.125 501.814 218.186 502.147 220.161C502.483 222.135 501.814 223.629 502.899 229.796C503.983 235.964 505.443 239.216 507.53 242.156C509.516 244.953 511.221 247.457 513.375 248.842C512.797 244.915 513.088 239.504 513.077 238.415C513.061 237.16 512.597 234.815 512.373 233.855C512.163 232.955 513.133 230.733 513.074 228.047C512.55 221.802 513.791 220.479 514.63 219.286C516.302 216.91 518.742 218.742 522.099 224.991C525.938 232.135 523.061 219.121 523.061 219.121Z" fill="#CD7A38"/>
<path d="M503.378 228.142C503.01 227.455 502.657 226.538 502.334 225.543C502.422 226.661 502.59 228.039 502.899 229.795C503.982 235.963 505.442 239.215 507.529 242.155C507.977 242.782 508.407 243.395 508.835 243.985C507.939 240.904 507.491 237.974 507.021 236.112C506.346 233.438 504.906 230.997 503.378 228.142Z" fill="#CD7A38"/>
<path d="M524.743 261.087C523.431 262.24 520.251 269.498 513.71 265.721C507.227 261.978 503.839 251.125 502.38 248.45C499.36 248.689 491.972 248.041 491.972 248.041V248.138C497.385 257.604 504.906 265.881 513.226 270.685C521.738 275.599 529.413 275.907 534.85 272.444C532.859 270.306 527.205 264.191 524.743 261.087Z" fill="#EEEEEE"/>
<path d="M502.441 222.202C502.441 222.202 502.055 220.293 501.188 219.66C500.32 219.029 499.409 219.766 500.003 223.428C500.594 227.088 501.188 227.931 501.416 228.88C501.644 229.828 502.533 231.605 503.331 230.117L502.441 222.202Z" fill="#CD7A38"/>
<path d="M525.09 235.277C525.09 235.277 525.478 233.817 526.346 234.185C527.212 234.554 528.122 236.345 527.53 239.321C526.938 242.297 526.343 242.456 526.116 243.141C525.888 243.826 524.999 244.575 524.202 242.165L525.09 235.277Z" fill="#FFAF73"/>
<path d="M514.201 266.469L502.895 247.844H500.069L507.578 266.8C508.345 267.412 509.123 267.997 509.909 268.552L514.201 266.469Z" fill="#D2D2D2"/>
<path d="M513.768 266.219L517.92 272.969C518.864 273.339 519.791 273.656 520.704 273.91L527.896 263.909L525.072 260.646L513.768 266.219Z" fill="#D2D2D2"/>
<path d="M517.162 216.85C517.042 216.842 522.419 221.62 523.877 228.226C525.334 234.832 526.661 217.436 517.162 216.85Z" fill="black"/>
<path d="M519.29 219.236C519.29 219.236 516.259 214.288 514.232 218.104C512.976 220.47 511.102 226.895 505.542 226.09C505.542 226.09 499.984 229.757 503.492 238.099C503.492 238.099 500.213 234.529 499.849 231.075C499.849 231.075 498.892 232.424 499.573 235.278C499.573 235.278 496.704 230.434 497.479 225.85C498.253 221.266 498.163 210.574 501.169 207.204C504.177 203.835 513.516 201.064 519.575 210.935C519.575 210.935 525.135 213.809 527.594 222.161C530.054 230.513 529.827 230.383 530.19 233.333C530.555 236.281 529.554 246.268 532.604 248.869C532.604 248.869 530.351 246.701 529.644 244.477C529.644 244.477 529.598 251.494 525.087 250.176C525.087 250.176 527.866 247.866 527.456 243.828C527.045 239.791 523.857 233.254 523.948 229.561C524.04 225.868 523.754 217.566 519.29 219.236Z" fill="#131313"/>
<path d="M553.158 324.62L475.118 279.565V276.87L553.158 321.926V324.62Z" fill="#D5D1EA"/>
<path d="M553.158 332.162L475.118 287.107V284.412L553.158 329.468V332.162Z" fill="#D5D1EA"/>
<path d="M553.158 339.704L475.118 294.649V291.954L553.158 337.009V339.704Z" fill="#D5D1EA"/>
<path d="M553.158 347.245L475.118 302.19V299.495L553.158 344.551V347.245Z" fill="#D5D1EA"/>
<path d="M519.745 335.495L475.117 309.732V307.037L519.745 332.802V335.495Z" fill="#D5D1EA"/>
<path d="M493.066 267.904L494.292 271.478L497.031 273.521L495.049 274.607L495.517 278.028L493.066 275.124L490.616 275.198L491.084 272.318L489.101 268.942L491.84 270.064L493.066 267.904Z" fill="#DC9500"/>
<path d="M503.603 273.987L504.827 277.561L507.567 279.603L505.584 280.69L506.053 284.111L503.603 281.207L501.15 281.281L501.62 278.401L499.637 275.026L502.377 276.147L503.603 273.987Z" fill="#DC9500"/>
<path d="M514.14 280.07L515.364 283.644L518.104 285.686L516.121 286.773L516.588 290.194L514.14 287.292L511.689 287.364L512.157 284.484L510.174 281.108L512.914 282.23L514.14 280.07Z" fill="#DC9500"/>
<path d="M524.675 286.152L525.9 289.726L528.64 291.769L526.656 292.855L527.124 296.276L524.675 293.374L522.224 293.446L522.692 290.566L520.71 287.191L523.449 288.312L524.675 286.152Z" fill="#DC9500"/>
<path d="M535.21 292.235L536.436 295.809L539.176 297.852L537.192 298.938L537.66 302.359L535.21 299.457L532.76 299.529L533.228 296.649L531.246 293.273L533.984 294.395L535.21 292.235Z" fill="#DC9500"/>
</g>
<path d="M257.969 397.817C256.14 406.966 254.23 425.982 252.64 434.336C251.046 442.689 250.411 449.13 251.128 454.461C251.843 459.793 254.206 466.825 254.206 466.825C254.206 466.825 257.173 471.021 254.714 472.179C252.254 473.336 250.228 471.091 247.841 467.62C245.453 464.148 237.82 457.238 236.408 455.826C237.183 455.053 237.842 454.621 238.163 450.641C238.48 446.664 234.978 428.844 233.944 421.685C232.908 414.524 238.796 399.648 240.069 395.213C241.341 390.776 239.435 384.213 237.525 377.61C235.616 371.007 234.737 350.323 234.737 350.323C234.737 350.323 230.84 327.33 233.783 320.806C236.727 314.283 260.991 317.306 264.572 321.617C268.152 325.927 268.631 343.003 267.356 355.255C266.084 367.506 259.8 388.669 257.969 397.817Z" fill="#FFAF73"/>
<path d="M212.537 433.544L211.958 439.623C211.958 439.623 214.925 439.913 214.199 442.299C213.476 444.687 211.089 443.095 210.726 441.14C210.365 439.188 208.485 437.815 207.183 437.091C205.882 436.366 200.382 433.544 200.382 433.544C200.382 433.544 201.977 430.343 202.576 427.833C203.173 425.322 201.356 410.459 200.645 401.479C199.934 392.499 207.934 380.676 210.691 373.386C213.447 366.096 209.534 349.648 208.468 334.444C207.401 319.241 213.092 310.617 213.092 310.617L237.363 321.021V336.134C237.363 336.134 234.738 350.321 232.117 362.539C229.495 374.756 223.85 385.122 222.16 389.211C220.472 393.301 215.58 411.97 214.196 418.638C212.809 425.307 212.537 433.544 212.537 433.544Z" fill="#FFAF73"/>
<path d="M243.471 419.972C245.915 410.949 249.486 392.055 246.949 379.273C244.411 366.489 250.34 317.265 250.34 317.265H250.345C256.745 317.877 262.907 319.607 264.573 321.616C268.153 325.926 268.632 343.001 267.357 355.254C266.085 367.505 259.8 388.669 257.969 397.818C256.14 406.967 254.23 425.981 252.64 434.334C251.046 442.688 250.412 449.13 251.129 454.46C251.844 459.792 254.207 466.825 254.207 466.825C254.207 466.825 257.173 471.02 254.714 472.178C252.254 473.334 250.229 471.09 247.842 467.618C246.939 466.307 245.289 464.506 243.508 462.693C243.636 462.165 243.806 461.562 244.035 460.859C245.351 456.816 243.941 454.56 244.035 453.808C244.129 453.056 241.028 428.995 243.471 419.972Z" fill="#CD7A38"/>
<path d="M207.915 415.703C208.621 402.998 210.434 392.208 212.15 388.074C213.864 383.939 218.703 377.587 219.309 367.401C219.738 360.166 221.22 330.841 222.042 314.455L237.363 321.021V336.135C237.363 336.135 234.738 350.322 232.117 362.54C229.495 374.757 223.849 385.122 222.159 389.211C220.471 393.301 215.579 411.971 214.195 418.639C212.809 425.307 212.536 433.545 212.536 433.545L211.958 439.624C211.958 439.624 214.925 439.913 214.199 442.299C213.477 444.686 211.089 443.096 210.727 441.14C210.365 439.188 208.484 437.815 207.182 437.092C206.618 436.777 205.266 436.069 203.913 435.367C205.31 431.385 207.449 424.095 207.915 415.703Z" fill="#CD7A38"/>
<path d="M237.082 234.106L237.277 234.402L245.169 238.458L247.288 244.922L234.57 239.182L237.082 234.106Z" fill="white"/>
<path d="M274.481 292.305L256.343 283.636L260.343 276.501L274.481 292.305Z" fill="#333333"/>
<path d="M280.507 276.214C280.507 276.214 280.919 269.896 280.507 269.485C280.096 269.074 270.743 267.024 270.743 267.024L280.507 276.214Z" fill="#FFAF73"/>
<path d="M280.361 269.403C280.433 269.434 280.487 269.463 280.507 269.485C280.92 269.895 280.507 276.215 280.507 276.215L277.242 273.142C278.326 271.756 279.412 270.486 280.361 269.403Z" fill="#CD7A38"/>
<path d="M236.41 455.826C236.41 455.826 231.927 457.925 230.804 461.434C229.682 464.941 232.215 467.908 233.082 471.166C233.95 474.419 233.949 482.958 233.949 482.958L235.47 482.521C235.47 482.521 235.326 474.564 236.41 472.755C237.496 470.947 240.244 471.02 242.487 472.755C244.729 474.494 251.171 480.787 254.858 480.787C258.55 480.787 270.413 470.732 269.836 467.91C269.258 465.087 254.207 466.824 254.207 466.824C254.207 466.824 257.174 471.02 254.715 472.179C252.255 473.335 250.229 471.091 247.843 467.619C245.455 464.147 237.821 457.238 236.41 455.826Z" fill="#1E1E1E"/>
<path d="M200.382 433.545C200.382 433.545 205.882 436.367 207.182 437.092C208.485 437.816 210.365 439.189 210.726 441.141C211.089 443.096 213.475 444.687 214.198 442.299C214.923 439.913 211.957 439.624 211.957 439.624L212.536 433.545C212.536 433.545 216.226 432.1 216.879 432.534C217.528 432.969 217.239 445.627 214.634 448.232C211.017 451.851 205.59 447.58 204.144 447.653C204.144 447.653 201.177 448.233 200.021 451.776C198.863 455.322 198.211 458.214 198.211 458.214L196.765 457.781C196.765 457.781 198.646 450.763 197.705 447.724C196.765 444.687 195.245 442.155 195.752 439.695C196.258 437.235 200.382 433.545 200.382 433.545Z" fill="#1E1E1E"/>
<path d="M266.628 324.918C266.628 324.918 268.212 330.638 268.608 346.101C269.005 361.562 261.989 382.052 261.989 382.052C261.989 382.052 255.408 386.148 244.905 384.834C240.017 384.223 213.664 373.26 210.774 365.985C210.774 365.985 207.493 336.002 207.493 326.55C207.493 317.098 215.108 305.283 215.108 305.283C215.108 305.283 261.961 305.04 266.628 324.918Z" fill="#4B4B4B"/>
<path d="M266.628 324.919C266.628 324.919 268.212 330.638 268.608 346.101C269.005 361.562 261.989 382.052 261.989 382.052C261.989 382.052 257.13 385.07 249.104 385.09C250.103 371.87 249.128 354.917 248.058 350.513C246.734 345.082 234.846 343.32 222.81 339.211C215.586 336.744 210.481 332.271 207.55 329.087C207.513 328.134 207.493 327.28 207.493 326.55C207.493 317.098 215.108 305.283 215.108 305.283C215.108 305.283 261.961 305.041 266.628 324.919Z" fill="#2C2C2C"/>
<path d="M258.606 252.112C258.606 252.112 264.369 268.593 263.791 273.895C263.215 279.196 260.259 291.066 261.219 296.252C262.177 301.438 268.286 329.327 269.325 335.895C269.325 335.895 266.741 340.6 250.34 341.638C233.943 342.675 212.49 332.83 206.497 325.108C206.497 325.108 210.663 311.12 214.119 304.55C217.577 297.981 224.261 290.491 222.417 284.498C220.574 278.506 204.094 251.192 203.632 244.508C203.171 237.823 205.477 232.061 209.048 230.563C212.622 229.065 225.568 231.369 225.568 231.369C225.568 231.369 234.071 234.395 243.263 239.852C249.254 243.409 256.467 248.928 258.606 252.112Z" fill="#797979"/>
<path d="M241.663 272.857C241.887 265.693 252.046 258.481 259.316 254.226C260.841 258.845 264.24 269.763 263.79 273.894C263.215 279.195 260.259 291.065 261.219 296.251C262.177 301.437 268.285 329.327 269.324 335.895C269.324 335.895 266.74 340.6 250.34 341.638C248.349 341.764 246.271 341.762 244.149 341.652C251.347 316.872 241.33 283.628 241.663 272.857Z" fill="#4B4B4B"/>
<path d="M249.846 246.465C252.119 245.869 261.313 251.479 266.039 258.623C270.764 265.769 284.19 278.152 285.917 281.729C287.646 285.304 287.958 292.854 284.997 294.753C280.691 297.517 271.561 290.673 266.72 286.524C261.879 282.375 248.923 272.511 244.889 262.945C240.856 253.381 245.007 247.733 249.846 246.465Z" fill="#797979"/>
<path d="M236.258 247.385C236.258 247.385 235.671 237.934 237.081 234.439C238.487 230.941 239.71 230.364 241.298 229.995C242.529 229.708 245.053 230.413 247.904 224.725C250.755 219.038 249.681 216.613 250.162 214.19C250.641 211.769 251.372 210.075 250.961 207.731C250.551 205.386 249.772 196.65 242.897 193.672C236.023 190.692 227.626 191.207 223.034 193.861C218.441 196.515 214.823 202.701 214.858 209.136C214.889 215.571 218.399 219.586 218.453 223.97C218.509 228.354 215.808 233.742 213.185 237.136C210.558 240.532 216.021 245.314 219.754 247.053C228.098 250.938 236.258 247.385 236.258 247.385Z" fill="#FFAF73"/>
<path d="M241.004 224.298C240.628 219.885 240.796 215.497 240.796 215.497L232.841 221.481C232.841 221.481 233.447 237.702 228.795 244.747C227.846 246.183 227.79 247.567 228.289 248.867C232.899 248.843 236.258 247.385 236.258 247.385C236.258 247.385 235.671 237.934 237.081 234.439C238.487 230.942 239.709 230.363 241.297 229.994C241.898 229.853 242.806 229.948 243.905 229.425C242.622 228.341 241.204 226.641 241.004 224.298Z" fill="#CD7A38"/>
<path d="M242.729 245.853C240.774 233.11 236.492 223.843 241.009 219.288L242.066 217.723C242.161 217.703 242.656 219.481 244.09 219.093C244.81 218.898 245.751 215.027 246.595 212.814C246.799 212.282 247.088 211.592 247.418 210.845C247.418 210.845 243.691 214.703 241.752 216.124L241.373 215.715C241.373 215.715 248.074 210.118 250.382 205.542C250.382 205.542 245.612 211.487 242.663 213.154C239.714 214.821 236.206 216.705 237.496 225.408C238.516 232.297 242.573 243.801 242.309 251.56C242.828 249.669 243.018 247.732 242.729 245.853Z" fill="#6C2C3C"/>
<path d="M247.808 194.292C245.128 191.035 240.476 187.432 229.902 188.553C224.804 189.093 220.692 193.007 218.65 195.808C216.364 198.946 214.282 203.446 214.813 212.462C215.346 221.478 214.867 229.103 209.028 234.917C205.777 238.153 204.189 247.318 207.159 252.866C206.15 249.778 205.596 245.569 207.454 241.145C207.49 241.057 207.511 241.008 207.511 241.008C207.49 241.053 207.473 241.099 207.454 241.145C207.088 242.095 205.047 248.051 208.47 254.73C209.075 255.39 209.778 255.953 210.602 256.378C218.258 260.328 228.117 263.278 230.313 263.068C232.038 262.904 234.37 261.713 236.556 259.833C235.241 261.475 234.033 262.491 234.033 262.491C238.617 260.494 241 255.25 241.984 252.441C241.429 255.844 240.139 258.695 240.139 258.695C240.139 258.695 243.153 253.806 243.343 249.894C243.534 245.981 241.569 239.592 241.569 239.592V239.595C239.561 230.064 237.269 223.06 241.009 219.287L242.066 217.722C242.161 217.702 242.656 219.48 244.09 219.092C244.81 218.897 245.751 215.027 246.595 212.814C246.799 212.282 247.088 211.592 247.418 210.845C256.411 203.374 247.808 194.292 247.808 194.292Z" fill="#CD7420"/>
<path d="M249.809 206.343C247.856 209.627 244.413 210.437 240.4 214.236C236.386 218.036 236.466 227.12 238.928 235.395C241.388 243.67 241.133 250.417 241.133 250.417C240.815 243.259 237.764 237.258 237.764 237.258C237.764 237.258 240.881 245.952 239.202 251.859C237.522 257.765 232.238 260.507 232.238 260.507C234.23 258.396 235.99 254.175 235.99 254.175C232.721 259.432 228.719 260.71 228.719 260.71C238.766 249.923 235.312 237.385 235.312 237.385C235.807 258.977 222.24 259.803 222.24 259.803L223.338 257.688C222.588 258.498 220.801 259.867 219.575 259.042C218.35 258.218 217.438 255.429 217.438 255.429L217.325 258.418C216.006 257.68 214.36 254.534 214.36 254.534L214.265 257.046C209.867 250.619 213.659 237.184 213.659 237.184C209.148 247.628 211.861 255.817 211.861 255.817C208.39 252.633 208.66 245.461 208.66 245.461C207.83 248.422 208.46 250.721 208.46 250.721C207.749 248.959 206.684 244.311 210.703 237.339C214.723 230.369 215.209 225.842 215.209 225.842C214.251 228.738 213.023 230.786 213.023 230.786C216.135 223.782 214.978 217.456 214.978 217.456C214.969 224.314 213.755 230.209 209.028 234.917C205.777 238.153 204.189 247.318 207.159 252.866C206.15 249.778 205.596 245.57 207.455 241.145C207.49 241.058 207.511 241.008 207.511 241.008C207.49 241.053 207.473 241.099 207.455 241.145C207.088 242.095 205.047 248.052 208.47 254.731C209.075 255.391 209.778 255.952 210.602 256.378C218.258 260.327 228.117 263.278 230.313 263.068C232.038 262.904 234.37 261.713 236.556 259.832C235.241 261.475 234.033 262.49 234.033 262.49C238.617 260.493 241 255.251 241.984 252.442C241.429 255.845 240.139 258.696 240.139 258.696C240.139 258.696 243.153 253.806 243.343 249.895C243.534 245.982 241.569 239.593 241.569 239.593V239.596C239.561 230.065 237.269 223.06 241.009 219.287L242.066 217.722C242.161 217.703 242.656 219.481 244.09 219.093C244.81 218.898 245.751 215.027 246.595 212.814C246.799 212.281 247.088 211.593 247.418 210.846L244.56 212.223C247.998 209.846 249.809 206.343 249.809 206.343Z" fill="#B0631D"/>
<path d="M241.832 224.794C241.575 225.206 238.618 225.456 239.113 220.36C239.607 215.266 243.022 214.073 242.939 217.8C242.856 221.525 241.832 224.794 241.832 224.794Z" fill="#FFAF73"/>
<path d="M229.901 188.553C224.803 189.094 220.691 193.008 218.649 195.808C216.363 198.946 214.281 203.447 214.812 212.463C214.918 214.232 214.983 215.946 214.975 217.605C215.486 219.311 215.897 220.733 216.047 221.622C216.642 225.171 215.171 233.506 215.171 233.506C216.169 231.233 216.804 225.665 216.804 225.665C217.535 228.854 215.43 239.514 215.43 239.514C217.604 235.773 219.572 226.733 219.132 214.22C218.692 201.707 226.92 193.789 230.078 191.786C235.604 188.282 241.549 189.679 241.557 189.681C238.765 188.58 235.031 188.009 229.901 188.553Z" fill="#B0631D"/>
<path d="M227.067 200.866C227.067 200.866 226.509 201.355 225.75 202.391C224.993 203.425 224.037 205.024 223.368 207.129C223.033 208.178 222.769 209.349 222.625 210.606C222.468 211.862 222.486 213.2 222.506 214.595C222.551 217.384 222.652 220.374 222.635 223.386C222.632 229.402 222.116 235.387 220.841 239.666C220.226 241.806 219.439 243.494 218.765 244.595C218.095 245.698 217.589 246.236 217.597 246.242C217.589 246.237 218.087 245.668 218.724 244.53C219.364 243.396 220.095 241.674 220.648 239.518C221.213 237.366 221.612 234.797 221.85 232.039C222.091 229.278 222.175 226.326 222.187 223.384C222.203 220.441 222.133 217.486 222.127 214.702C222.129 213.314 222.128 211.954 222.306 210.676C222.473 209.398 222.761 208.209 223.127 207.146C223.85 205.012 224.869 203.406 225.673 202.378C226.483 201.343 227.067 200.866 227.067 200.866Z" fill="#B0631D"/>
<path d="M223.885 251.448C223.878 251.448 225.031 248.931 226.237 244.948C226.83 242.957 227.438 240.596 227.793 238.011C227.965 236.72 228.075 235.371 228.043 234.005C227.999 232.644 227.85 231.23 227.751 229.826C227.29 224.2 226.952 218.609 227.24 214.439C227.374 212.356 227.672 210.635 228.046 209.481C228.412 208.319 228.839 207.755 228.827 207.754C228.836 207.755 228.427 208.347 228.104 209.531C227.77 210.708 227.53 212.447 227.458 214.535C227.293 218.719 227.75 224.277 228.197 229.79C228.298 231.175 228.433 232.545 228.474 233.931C228.497 235.314 228.373 236.67 228.181 237.969C227.791 240.568 227.129 242.936 226.478 244.932C225.155 248.928 223.878 251.448 223.885 251.448Z" fill="#B0631D"/>
<path d="M240.561 194.24C240.574 194.238 238.933 194.222 236.726 195.139C235.628 195.591 234.409 196.276 233.242 197.201C232.07 198.122 230.959 199.28 229.992 200.561C228.043 203.126 226.746 206.079 225.953 208.322C225.155 210.573 224.798 212.12 224.789 212.116C224.798 212.119 225.052 210.519 225.756 208.204C226.453 205.9 227.678 202.862 229.633 200.29C230.601 199.007 231.749 197.846 232.964 196.935C234.179 196.019 235.457 195.361 236.6 194.948C238.901 194.106 240.577 194.238 240.561 194.24Z" fill="#B0631D"/>
<path d="M244.361 198.854C244.361 198.854 243.59 199.084 242.369 199.758C241.152 200.431 239.476 201.569 237.893 203.369C236.301 205.154 234.872 207.63 234.071 210.53C233.667 211.976 233.407 213.514 233.281 215.096C233.148 216.685 233.063 218.304 233.033 219.931C232.958 223.185 233.166 226.418 233.192 229.455C233.23 232.494 232.945 235.323 232.455 237.685C231.971 240.05 231.371 241.962 230.93 243.287C230.484 244.611 230.193 245.351 230.197 245.352C230.193 245.351 230.464 244.586 230.874 243.23C231.281 241.875 231.833 239.926 232.252 237.545C232.682 235.168 232.898 232.356 232.811 229.349C232.737 226.344 232.51 223.132 232.585 219.922C232.614 218.319 232.704 216.713 232.847 215.135C232.981 213.552 233.254 211.995 233.679 210.534C234.511 207.6 236.007 205.086 237.658 203.294C239.306 201.484 241.044 200.365 242.301 199.714C243.567 199.062 244.363 198.855 244.361 198.854Z" fill="#B0631D"/>
<path d="M135.269 269.287L50.81 318.05L50.237 318.929L50.239 205.171L50.81 204.291L135.268 155.531L135.269 269.287Z" fill="#4E6613"/>
<path d="M153.93 169.462L72.197 220.732L50.808 207.657L135.268 158.898L153.93 169.462Z" fill="#D5D1EA"/>
<path d="M70.839 216.557L69.897 216.521L50.239 205.171L50.235 318.929L69.897 330.278L70.841 330.315L70.839 216.557ZM60.067 298.714C57.625 297.305 55.64 293.864 55.64 291.046C55.64 288.228 57.625 287.082 60.067 288.49C62.508 289.9 64.494 293.339 64.494 296.158C64.494 298.977 62.508 300.123 60.067 298.714Z" fill="#80AF20"/>
<path d="M155.301 281.555L70.841 330.316V216.558L155.3 167.798L155.301 281.555Z" fill="#80AF20"/>
<path d="M73.598 328.724L74.012 328.486L74.01 214.726L73.596 214.966L73.598 328.724Z" fill="#4E6613"/>
<path d="M70.84 216.558L69.898 216.522L69.897 330.28L70.841 330.316L70.84 216.558Z" fill="#4E6613"/>
<path d="M67.338 276.951C67.338 278.109 66.517 278.583 65.513 278.004L54.845 271.844C53.841 271.264 53.02 269.844 53.02 268.684L53.023 215.363C53.023 214.204 53.843 213.73 54.846 214.309L65.514 220.468C66.518 221.048 67.34 222.469 67.34 223.627L67.338 276.951Z" fill="black"/>
<path d="M67.147 276.854C67.147 278.013 66.326 278.487 65.322 277.907L54.653 271.748C53.65 271.169 52.83 269.748 52.83 268.588L52.831 215.267C52.831 214.108 53.652 213.635 54.655 214.214L65.324 220.373C66.326 220.951 67.148 222.373 67.148 223.532L67.147 276.854Z" fill="#FAFAFA"/>
<path d="M60.297 287.253C58.707 286.333 57.279 286.304 56.282 286.985C57.256 286.44 58.591 286.524 60.066 287.375C63.044 289.095 65.459 293.277 65.459 296.716C65.459 299.194 64.203 300.602 62.386 300.557C64.358 300.747 65.745 299.305 65.745 296.687C65.745 293.214 63.304 288.991 60.297 287.253Z" fill="black"/>
<path d="M60.067 288.491C57.625 287.083 55.641 288.228 55.641 291.047C55.641 293.865 57.625 297.305 60.067 298.715C62.508 300.124 64.494 298.977 64.494 296.159C64.494 293.34 62.508 289.9 60.067 288.491Z" fill="black" fill-opacity="0.3"/>
<path d="M60.065 287.375C57.089 285.657 54.674 287.051 54.673 290.489C54.673 293.928 57.089 298.111 60.067 299.83C63.046 301.549 65.459 300.154 65.459 296.716C65.459 293.278 63.043 289.095 60.065 287.375ZM60.067 298.715C57.625 297.306 55.64 293.865 55.64 291.047C55.64 288.229 57.625 287.083 60.067 288.491C62.508 289.901 64.494 293.34 64.494 296.159C64.494 298.978 62.508 300.124 60.067 298.715Z" fill="#D5D1EA"/>
<path d="M65.461 224.587L54.675 218.361V216.879L65.461 223.105V224.587Z" fill="#D5D1EA"/>
<path d="M65.46 276.449L54.674 270.224V268.741L65.46 274.967V276.449Z" fill="#D5D1EA"/>
<path d="M65.195 231.083L54.675 225.01V224.789L65.195 230.86V231.083Z" fill="#D5D1EA"/>
<path d="M65.195 236.912L54.675 230.839V230.616L65.194 236.69L65.195 236.912Z" fill="#D5D1EA"/>
<path d="M65.193 242.743L54.675 236.672V236.447L65.195 242.519L65.193 242.743Z" fill="#D5D1EA"/>
<path d="M65.193 248.572L54.675 242.499V242.276L65.195 248.348L65.193 248.572Z" fill="#D5D1EA"/>
<path d="M65.195 254.402L54.675 248.328V248.104L65.195 254.177V254.402Z" fill="#D5D1EA"/>
<path d="M65.193 260.23L54.675 254.157V253.934L65.193 260.006V260.23Z" fill="#D5D1EA"/>
<path d="M65.193 266.058L54.675 259.987V259.764L65.193 265.837V266.058Z" fill="#D5D1EA"/>
<path d="M65.193 271.887L54.675 265.817V265.593L65.193 271.665V271.887Z" fill="#D5D1EA"/>
<path d="M157.754 282.71L73.295 331.471L72.721 332.351L72.724 218.592L73.294 217.712L157.753 168.953L157.754 282.71Z" fill="#5686C2"/>
<path d="M176.415 182.884L94.682 234.154L73.293 221.078L157.753 172.318L176.415 182.884Z" fill="#D5D1EA"/>
<path d="M93.324 229.978L92.382 229.943L72.724 218.591L72.721 332.351L92.381 343.7L93.325 343.737L93.324 229.978ZM82.552 312.135C80.11 310.726 78.126 307.285 78.126 304.467C78.126 301.649 80.11 300.503 82.552 301.912C84.993 303.322 86.978 306.76 86.978 309.579C86.978 312.398 84.993 313.544 82.552 312.135Z" fill="#5686C2"/>
<path d="M177.786 294.975L93.326 343.736V229.978L177.785 181.218L177.786 294.975Z" fill="#396C9E"/>
<path d="M96.083 342.145L96.497 341.907L96.496 228.147L96.083 228.387V342.145Z" fill="#244662"/>
<path d="M93.325 229.978L92.383 229.942L92.382 343.701L93.326 343.736L93.325 229.978Z" fill="#244662"/>
<path d="M89.824 290.372C89.824 291.53 89.001 292.004 87.998 291.426L77.33 285.265C76.326 284.685 75.505 283.265 75.505 282.105L75.507 228.784C75.507 227.625 76.327 227.152 77.33 227.73L88 233.89C89.003 234.469 89.825 235.89 89.825 237.048L89.824 290.372Z" fill="black"/>
<path d="M89.631 290.275C89.631 291.435 88.811 291.908 87.807 291.328L77.139 285.169C76.135 284.59 75.315 283.169 75.315 282.009L75.316 228.688C75.316 227.529 76.137 227.056 77.14 227.635L87.809 233.794C88.811 234.372 89.633 235.794 89.633 236.953L89.631 290.275Z" fill="#FAFAFA"/>
<path d="M82.783 300.674C81.192 299.755 79.764 299.725 78.767 300.406C79.742 299.861 81.077 299.945 82.552 300.797C85.53 302.517 87.945 306.698 87.945 310.138C87.945 312.615 86.689 314.024 84.871 313.978C86.843 314.169 88.231 312.726 88.231 310.108C88.231 306.635 85.79 302.412 82.783 300.674Z" fill="black"/>
<path d="M82.551 301.912C80.109 300.503 78.125 301.649 78.125 304.468C78.125 307.286 80.109 310.726 82.551 312.136C84.992 313.545 86.978 312.398 86.978 309.58C86.978 306.761 84.992 303.321 82.551 301.912Z" fill="black" fill-opacity="0.5"/>
<path d="M82.551 300.797C79.575 299.078 77.161 300.472 77.159 303.911C77.159 307.349 79.574 311.532 82.552 313.251C85.531 314.97 87.945 313.575 87.945 310.138C87.945 306.699 85.53 302.517 82.551 300.797ZM82.552 312.136C80.11 310.727 78.126 307.286 78.126 304.468C78.126 301.65 80.11 300.503 82.552 301.912C84.993 303.322 86.979 306.761 86.979 309.58C86.979 312.399 84.993 313.545 82.552 312.136Z" fill="#D5D1EA"/>
<path d="M87.946 238.008L77.16 231.782V230.3L87.946 236.526V238.008Z" fill="#D5D1EA"/>
<path d="M87.945 289.869L77.159 283.644V282.161L87.945 288.387V289.869Z" fill="#D5D1EA"/>
<path d="M87.68 244.504L77.16 238.431V238.21L87.68 244.281V244.504Z" fill="#D5D1EA"/>
<path d="M87.68 250.334L77.16 244.26V244.038L87.68 250.111V250.334Z" fill="#D5D1EA"/>
<path d="M87.679 256.164L77.161 250.092V249.868L87.679 255.94V256.164Z" fill="#D5D1EA"/>
<path d="M87.679 261.993L77.161 255.919V255.697L87.679 261.769V261.993Z" fill="#D5D1EA"/>
<path d="M87.68 267.823L77.16 261.749V261.525L87.68 267.598V267.823Z" fill="#D5D1EA"/>
<path d="M87.679 273.652L77.161 267.58V267.356L87.679 273.428V273.652Z" fill="#D5D1EA"/>
<path d="M87.679 279.48L77.161 273.407V273.184L87.679 279.257V279.48Z" fill="#D5D1EA"/>
<path d="M87.679 285.308L77.161 279.238V279.014L87.679 285.085V285.308Z" fill="#D5D1EA"/>
</g>
</g>
<defs>
<clipPath id="clip0_1_5">
<rect width="709" height="516" fill="white"/>
</clipPath>
</defs>
</svg>
